<svg width="32" height="44" viewBox="0 0 32 44" fill="none" xmlns="http://www.w3.org/2000/svg"><path d="M15.3745 8.04167C17.3954 8.04167 19.0204 6.39583 19.0204 4.39583C19.0204 2.375 17.3745 0.75 15.3745 0.75C13.3537 0.75 11.7287 2.39583 11.7287 4.39583C11.7079 6.39583 13.3537 8.04167 15.3745 8.04167ZM15.3745 1.89583C16.7495 1.89583 17.8537 3 17.8537 4.375C17.8537 5.75 16.7495 6.85417 15.3745 6.85417C13.9995 6.85417 12.8954 5.75 12.8954 4.375C12.8954 3 13.9995 1.89583 15.3745 1.89583Z" fill="#35A6B6"></path><path d="M28.9796 19.5209H29.0421C29.7713 19.3959 30.3963 19 30.8338 18.4167C31.2504 17.8125 31.4171 17.0834 31.2713 16.3542C31.0213 15.0417 29.8338 14.125 28.5004 14.1667L28.3546 12.5834C28.3338 12.2709 28.0421 12.0209 27.7088 12.0417C27.3963 12.0625 27.1463 12.3542 27.1671 12.6875L27.3129 14.3334L21.7296 15.2292C21.3754 15.2917 21.0004 15.1667 20.7504 14.8959L15.1254 9.04169L15.0838 9.00003C14.6254 8.60419 14.0421 8.37503 13.4171 8.35419C13.1879 8.35419 12.9796 8.37503 12.7504 8.41669C12.2921 7.79169 11.6046 7.35419 10.8338 7.25003L6.22961 6.60419C5.52128 6.50003 4.81295 6.68753 4.25045 7.12503C3.68795 7.56253 3.31295 8.18753 3.20878 8.89586L3.16711 9.20836C2.97961 10.5209 3.79211 11.75 5.04211 12.125L3.97961 19.7917C3.89628 20.4375 4.06295 21.0625 4.45878 21.5834C4.85461 22.1042 5.41711 22.4375 6.04211 22.5209L10.0629 23.2709C10.1254 23.3959 10.2088 23.5209 10.2713 23.6459L9.25045 29.2084C9.22961 29.3125 9.18794 29.4167 9.12544 29.5L1.33378 38.8334C0.375445 39.9792 0.521278 41.6667 1.66711 42.625C2.14628 43.0209 2.77128 43.25 3.39628 43.25C4.18794 43.25 4.95878 42.8959 5.45878 42.2917L13.2504 32.9584C13.9171 32.1667 14.3754 31.1875 14.5629 30.1667L14.9171 28.2709L18.6879 31.8125C18.7713 31.8959 18.8338 32 18.8546 32.125L20.8963 41.0834C21.1879 42.3125 22.2713 43.1667 23.5213 43.1667C23.7296 43.1667 23.9379 43.1459 24.1254 43.1042C24.8338 42.9375 25.4171 42.5209 25.8129 41.8959C26.1879 41.2917 26.3129 40.5625 26.1463 39.8542L24.1046 30.8959C23.8338 29.75 23.2504 28.7292 22.4171 27.9167L17.4588 23.1667C16.5421 22.2917 16.0838 21.0209 16.2504 19.7709L16.4588 18.0625L17.6254 19.3334C18.6046 20.3959 20.0838 20.8959 21.5004 20.6667L27.8546 19.6459L30.1879 42.5625C30.2088 42.8542 30.4796 43.0834 30.7713 43.0834C30.7921 43.0834 30.8129 43.0834 30.8338 43.0834C31.1463 43.0417 31.3963 42.7709 31.3546 42.4375L28.9796 19.5209ZM6.20878 21.375C5.87545 21.3334 5.58378 21.1667 5.37544 20.8959C5.16711 20.625 5.08378 20.2917 5.12545 19.9584L6.18794 12.2917C6.62544 12.2917 7.16711 12.2084 7.64628 11.875C8.29211 11.4584 8.66711 10.7709 8.79211 9.81253C8.85461 9.50003 8.62545 9.20836 8.31295 9.16669C7.97961 9.12503 7.68794 9.35419 7.64628 9.66669C7.56294 10.2709 7.35461 10.6875 7.02128 10.8959C6.62544 11.1667 6.14628 11.1459 5.87544 11.1042C5.83378 11.1042 5.81295 11.0834 5.77128 11.0834C5.75045 11.0834 5.72961 11.0834 5.70878 11.0834H5.68795C5.66711 11.0834 5.66711 11.0834 5.64628 11.0834C5.62545 11.0834 5.62545 11.0834 5.60461 11.0834C4.79211 10.9584 4.20878 10.1875 4.33378 9.37503L4.37545 9.06253C4.41711 8.64586 4.62544 8.29169 4.95878 8.06253C5.27128 7.81253 5.66711 7.70836 6.08378 7.77086L10.7088 8.41669C11.0838 8.45836 11.4379 8.64586 11.6879 8.93753C11.1254 9.37503 10.7296 10.0417 10.6463 10.7917L9.50045 20.2709C9.43795 20.8542 9.47961 21.4375 9.58378 22L6.20878 21.375ZM13.3963 29.9792C13.2504 30.8125 12.8754 31.5834 12.3338 32.2292L4.54211 41.5625C4.25045 41.9167 3.83378 42.1042 3.37545 42.1042C3.02128 42.1042 2.66711 41.9792 2.39628 41.75C1.75044 41.2084 1.66711 40.25 2.20878 39.6042L10.0004 30.2709C10.2088 30.0417 10.3338 29.75 10.3963 29.4375L11.2296 24.8334L13.8754 27.3334L13.3963 29.9792ZM21.2921 19.5625C20.2504 19.7292 19.1879 19.3542 18.4588 18.5834L14.6046 14.4167C14.3754 14.1875 14.0213 14.1667 13.7713 14.375C13.5421 14.6042 13.5213 14.9584 13.7296 15.2084L15.3754 16.9792C15.3754 16.9792 15.3754 16.9792 15.3754 17L15.0629 19.6667C14.8754 21.2917 15.4588 22.9167 16.6254 24.0417L21.5838 28.7917C22.2713 29.4375 22.7296 30.2709 22.9588 31.1875L25.0004 40.1459C25.1879 40.9584 24.6879 41.7917 23.8546 41.9792C23.7504 42 23.6254 42.0209 23.5004 42.0209C22.7921 42.0209 22.1879 41.5417 22.0213 40.8542L19.9796 31.8959C19.8963 31.5625 19.7296 31.25 19.4796 31L11.9171 23.8542C11.0004 22.9792 10.5421 21.6875 10.6879 20.4167L11.8338 10.9375C11.9379 10.125 12.5838 9.52086 13.3546 9.52086C13.3754 9.52086 13.3963 9.52086 13.4171 9.52086C13.7713 9.54169 14.0838 9.64586 14.3338 9.87503L19.9379 15.7084C20.4588 16.25 21.2088 16.5 21.9379 16.375L28.2921 15.3542C29.1463 15.2084 29.9588 15.75 30.1254 16.5625C30.2088 16.9792 30.1254 17.375 29.8754 17.7292C29.6254 18.0834 29.2713 18.2917 28.8754 18.3542L21.2921 19.5625Z" fill="#35A6B6"></path></svg>