<svg width="150px" height="54" viewBox="0 0 179 54" fill="none" xmlns="http://www.w3.org/2000/svg"><g clip-path="url(#clip0_3802_33034)"><path d="M172.574 53.333H6.32843C2.87415 53.333 0.0625 50.5134 0.0625 47.0618V6.59496C0.0625 3.14201 2.87415 0.333008 6.32843 0.333008H172.574C176.026 0.333008 178.938 3.14201 178.938 6.59496V47.0618C178.938 50.5134 176.026 53.333 172.574 53.333Z" fill="#404040"></path><path d="M177.656 47.0631C177.656 49.8668 175.385 52.1378 172.576 52.1378H6.32935C3.52168 52.1378 1.24268 49.8668 1.24268 47.0631V6.59358C1.24268 3.79121 3.52168 1.51221 6.32935 1.51221H172.574C175.385 1.51221 177.655 3.79121 177.655 6.59358L177.656 47.0631Z" fill="black"></path><path d="M59.8115 11.993C60.6995 11.993 61.4755 12.165 62.1395 12.509C62.8115 12.845 63.3275 13.333 63.6875 13.973C64.0555 14.605 64.2395 15.345 64.2395 16.193C64.2395 17.041 64.0555 17.777 63.6875 18.401C63.3275 19.025 62.8115 19.505 62.1395 19.841C61.4755 20.169 60.6995 20.333 59.8115 20.333H57.0875V11.993H59.8115ZM59.8115 19.217C60.7875 19.217 61.5355 18.953 62.0555 18.425C62.5755 17.897 62.8355 17.153 62.8355 16.193C62.8355 15.225 62.5755 14.469 62.0555 13.925C61.5355 13.381 60.7875 13.109 59.8115 13.109H58.4555V19.217H59.8115ZM68.4633 20.441C67.8393 20.441 67.2753 20.301 66.7713 20.021C66.2673 19.733 65.8713 19.333 65.5833 18.821C65.2953 18.301 65.1513 17.701 65.1513 17.021C65.1513 16.349 65.2993 15.753 65.5953 15.233C65.8913 14.713 66.2953 14.313 66.8073 14.033C67.3193 13.753 67.8913 13.613 68.5233 13.613C69.1553 13.613 69.7273 13.753 70.2393 14.033C70.7513 14.313 71.1553 14.713 71.4513 15.233C71.7473 15.753 71.8953 16.349 71.8953 17.021C71.8953 17.693 71.7433 18.289 71.4393 18.809C71.1353 19.329 70.7193 19.733 70.1913 20.021C69.6713 20.301 69.0953 20.441 68.4633 20.441ZM68.4633 19.253C68.8153 19.253 69.1433 19.169 69.4473 19.001C69.7593 18.833 70.0113 18.581 70.2033 18.245C70.3953 17.909 70.4913 17.501 70.4913 17.021C70.4913 16.541 70.3993 16.137 70.2153 15.809C70.0313 15.473 69.7873 15.221 69.4833 15.053C69.1793 14.885 68.8513 14.801 68.4993 14.801C68.1473 14.801 67.8193 14.885 67.5153 15.053C67.2193 15.221 66.9833 15.473 66.8073 15.809C66.6313 16.137 66.5433 16.541 66.5433 17.021C66.5433 17.733 66.7233 18.285 67.0833 18.677C67.4513 19.061 67.9113 19.253 68.4633 19.253ZM82.1277 13.721L80.0757 20.333H78.6357L77.3037 15.449L75.9717 20.333H74.5317L72.4677 13.721H73.8597L75.2397 19.037L76.6437 13.721H78.0717L79.4157 19.013L80.7837 13.721H82.1277ZM86.486 13.613C87.006 13.613 87.47 13.721 87.878 13.937C88.294 14.153 88.618 14.473 88.85 14.897C89.082 15.321 89.198 15.833 89.198 16.433V20.333H87.842V16.637C87.842 16.045 87.694 15.593 87.398 15.281C87.102 14.961 86.698 14.801 86.186 14.801C85.674 14.801 85.266 14.961 84.962 15.281C84.666 15.593 84.518 16.045 84.518 16.637V20.333H83.15V13.721H84.518V14.477C84.742 14.205 85.026 13.993 85.37 13.841C85.722 13.689 86.094 13.613 86.486 13.613ZM92.311 11.453V20.333H90.943V11.453H92.311ZM96.975 20.441C96.351 20.441 95.787 20.301 95.283 20.021C94.779 19.733 94.383 19.333 94.095 18.821C93.807 18.301 93.663 17.701 93.663 17.021C93.663 16.349 93.811 15.753 94.107 15.233C94.403 14.713 94.807 14.313 95.319 14.033C95.831 13.753 96.403 13.613 97.035 13.613C97.667 13.613 98.239 13.753 98.751 14.033C99.263 14.313 99.667 14.713 99.963 15.233C100.259 15.753 100.407 16.349 100.407 17.021C100.407 17.693 100.255 18.289 99.951 18.809C99.647 19.329 99.231 19.733 98.703 20.021C98.183 20.301 97.607 20.441 96.975 20.441ZM96.975 19.253C97.327 19.253 97.655 19.169 97.959 19.001C98.271 18.833 98.523 18.581 98.715 18.245C98.907 17.909 99.003 17.501 99.003 17.021C99.003 16.541 98.911 16.137 98.727 15.809C98.543 15.473 98.299 15.221 97.995 15.053C97.691 14.885 97.363 14.801 97.011 14.801C96.659 14.801 96.331 14.885 96.027 15.053C95.731 15.221 95.495 15.473 95.319 15.809C95.143 16.137 95.055 16.541 95.055 17.021C95.055 17.733 95.235 18.285 95.595 18.677C95.963 19.061 96.423 19.253 96.975 19.253ZM101.303 16.997C101.303 16.333 101.439 15.745 101.711 15.233C101.991 14.721 102.367 14.325 102.839 14.045C103.319 13.757 103.847 13.613 104.423 13.613C104.943 13.613 105.395 13.717 105.779 13.925C106.171 14.125 106.483 14.377 106.715 14.681V13.721H108.095V20.333H106.715V19.349C106.483 19.661 106.167 19.921 105.767 20.129C105.367 20.337 104.911 20.441 104.399 20.441C103.831 20.441 103.311 20.297 102.839 20.009C102.367 19.713 101.991 19.305 101.711 18.785C101.439 18.257 101.303 17.661 101.303 16.997ZM106.715 17.021C106.715 16.565 106.619 16.169 106.427 15.833C106.243 15.497 105.999 15.241 105.695 15.065C105.391 14.889 105.063 14.801 104.711 14.801C104.359 14.801 104.031 14.889 103.727 15.065C103.423 15.233 103.175 15.485 102.983 15.821C102.799 16.149 102.707 16.541 102.707 16.997C102.707 17.453 102.799 17.853 102.983 18.197C103.175 18.541 103.423 18.805 103.727 18.989C104.039 19.165 104.367 19.253 104.711 19.253C105.063 19.253 105.391 19.165 105.695 18.989C105.999 18.813 106.243 18.557 106.427 18.221C106.619 17.877 106.715 17.477 106.715 17.021ZM109.436 16.997C109.436 16.333 109.572 15.745 109.844 15.233C110.124 14.721 110.5 14.325 110.972 14.045C111.452 13.757 111.984 13.613 112.568 13.613C113 13.613 113.424 13.709 113.84 13.901C114.264 14.085 114.6 14.333 114.848 14.645V11.453H116.228V20.333H114.848V19.337C114.624 19.657 114.312 19.921 113.912 20.129C113.52 20.337 113.068 20.441 112.556 20.441C111.98 20.441 111.452 20.297 110.972 20.009C110.5 19.713 110.124 19.305 109.844 18.785C109.572 18.257 109.436 17.661 109.436 16.997ZM114.848 17.021C114.848 16.565 114.752 16.169 114.56 15.833C114.376 15.497 114.132 15.241 113.828 15.065C113.524 14.889 113.196 14.801 112.844 14.801C112.492 14.801 112.164 14.889 111.86 15.065C111.556 15.233 111.308 15.485 111.116 15.821C110.932 16.149 110.84 16.541 110.84 16.997C110.84 17.453 110.932 17.853 111.116 18.197C111.308 18.541 111.556 18.805 111.86 18.989C112.172 19.165 112.5 19.253 112.844 19.253C113.196 19.253 113.524 19.165 113.828 18.989C114.132 18.813 114.376 18.557 114.56 18.221C114.752 17.877 114.848 17.477 114.848 17.021ZM126.17 18.629H122.678L122.078 20.333H120.65L123.638 11.981H125.222L128.21 20.333H126.77L126.17 18.629ZM125.786 17.513L124.43 13.637L123.062 17.513H125.786ZM135.341 14.477C135.341 14.901 135.241 15.301 135.041 15.677C134.841 16.053 134.521 16.361 134.081 16.601C133.641 16.833 133.077 16.949 132.389 16.949H130.877V20.333H129.509V11.993H132.389C133.029 11.993 133.569 12.105 134.009 12.329C134.457 12.545 134.789 12.841 135.005 13.217C135.229 13.593 135.341 14.013 135.341 14.477ZM132.389 15.833C132.909 15.833 133.297 15.717 133.553 15.485C133.809 15.245 133.937 14.909 133.937 14.477C133.937 13.565 133.421 13.109 132.389 13.109H130.877V15.833H132.389ZM141.242 20.333L138.014 16.601V20.333H136.646V11.993H138.014V15.797L141.254 11.993H142.97L139.346 16.169L143.03 20.333H141.242Z" fill="white"></path><path d="M65.0795 36.777H59.8415L58.9415 39.333H56.7995L61.2815 26.805H63.6575L68.1395 39.333H65.9795L65.0795 36.777ZM64.5035 35.103L62.4695 29.289L60.4175 35.103H64.5035ZM71.7803 30.873C72.1283 30.417 72.6023 30.033 73.2023 29.721C73.8023 29.409 74.4803 29.253 75.2363 29.253C76.1003 29.253 76.8863 29.469 77.5943 29.901C78.3143 30.321 78.8783 30.915 79.2863 31.683C79.6943 32.451 79.8983 33.333 79.8983 34.329C79.8983 35.325 79.6943 36.219 79.2863 37.011C78.8783 37.791 78.3143 38.403 77.5943 38.847C76.8863 39.279 76.1003 39.495 75.2363 39.495C74.4803 39.495 73.8083 39.345 73.2203 39.045C72.6323 38.733 72.1523 38.349 71.7803 37.893V44.049H69.7283V29.415H71.7803V30.873ZM77.8103 34.329C77.8103 33.645 77.6663 33.057 77.3783 32.565C77.1023 32.061 76.7303 31.683 76.2623 31.431C75.8063 31.167 75.3143 31.035 74.7863 31.035C74.2703 31.035 73.7783 31.167 73.3103 31.431C72.8543 31.695 72.4823 32.079 72.1943 32.583C71.9183 33.087 71.7803 33.681 71.7803 34.365C71.7803 35.049 71.9183 35.649 72.1943 36.165C72.4823 36.669 72.8543 37.053 73.3103 37.317C73.7783 37.581 74.2703 37.713 74.7863 37.713C75.3143 37.713 75.8063 37.581 76.2623 37.317C76.7303 37.041 77.1023 36.645 77.3783 36.129C77.6663 35.613 77.8103 35.013 77.8103 34.329ZM83.6195 30.873C83.9675 30.417 84.4415 30.033 85.0415 29.721C85.6415 29.409 86.3195 29.253 87.0755 29.253C87.9395 29.253 88.7255 29.469 89.4335 29.901C90.1535 30.321 90.7175 30.915 91.1255 31.683C91.5335 32.451 91.7375 33.333 91.7375 34.329C91.7375 35.325 91.5335 36.219 91.1255 37.011C90.7175 37.791 90.1535 38.403 89.4335 38.847C88.7255 39.279 87.9395 39.495 87.0755 39.495C86.3195 39.495 85.6475 39.345 85.0595 39.045C84.4715 38.733 83.9915 38.349 83.6195 37.893V44.049H81.5675V29.415H83.6195V30.873ZM89.6495 34.329C89.6495 33.645 89.5055 33.057 89.2175 32.565C88.9415 32.061 88.5695 31.683 88.1015 31.431C87.6455 31.167 87.1535 31.035 86.6255 31.035C86.1095 31.035 85.6175 31.167 85.1495 31.431C84.6935 31.695 84.3215 32.079 84.0335 32.583C83.7575 33.087 83.6195 33.681 83.6195 34.365C83.6195 35.049 83.7575 35.649 84.0335 36.165C84.3215 36.669 84.6935 37.053 85.1495 37.317C85.6175 37.581 86.1095 37.713 86.6255 37.713C87.1535 37.713 87.6455 37.581 88.1015 37.317C88.5695 37.041 88.9415 36.645 89.2175 36.129C89.5055 35.613 89.6495 35.013 89.6495 34.329ZM99.7745 26.823V39.333H97.7225V26.823H99.7745ZM107.113 29.253C107.893 29.253 108.589 29.415 109.201 29.739C109.825 30.063 110.311 30.543 110.659 31.179C111.007 31.815 111.181 32.583 111.181 33.483V39.333H109.147V33.789C109.147 32.901 108.925 32.223 108.481 31.755C108.037 31.275 107.431 31.035 106.663 31.035C105.895 31.035 105.283 31.275 104.827 31.755C104.383 32.223 104.161 32.901 104.161 33.789V39.333H102.109V29.415H104.161V30.549C104.497 30.141 104.923 29.823 105.439 29.595C105.967 29.367 106.525 29.253 107.113 29.253ZM117.038 39.495C116.258 39.495 115.556 39.357 114.932 39.081C114.32 38.793 113.834 38.409 113.474 37.929C113.114 37.437 112.922 36.891 112.898 36.291H115.022C115.058 36.711 115.256 37.065 115.616 37.353C115.988 37.629 116.45 37.767 117.002 37.767C117.578 37.767 118.022 37.659 118.334 37.443C118.658 37.215 118.82 36.927 118.82 36.579C118.82 36.207 118.64 35.931 118.28 35.751C117.932 35.571 117.374 35.373 116.606 35.157C115.862 34.953 115.256 34.755 114.788 34.563C114.32 34.371 113.912 34.077 113.564 33.681C113.228 33.285 113.06 32.763 113.06 32.115C113.06 31.587 113.216 31.107 113.528 30.675C113.84 30.231 114.284 29.883 114.86 29.631C115.448 29.379 116.12 29.253 116.876 29.253C118.004 29.253 118.91 29.541 119.594 30.117C120.29 30.681 120.662 31.455 120.71 32.439H118.658C118.622 31.995 118.442 31.641 118.118 31.377C117.794 31.113 117.356 30.981 116.804 30.981C116.264 30.981 115.85 31.083 115.562 31.287C115.274 31.491 115.13 31.761 115.13 32.097C115.13 32.361 115.226 32.583 115.418 32.763C115.61 32.943 115.844 33.087 116.12 33.195C116.396 33.291 116.804 33.417 117.344 33.573C118.064 33.765 118.652 33.963 119.108 34.167C119.576 34.359 119.978 34.647 120.314 35.031C120.65 35.415 120.824 35.925 120.836 36.561C120.836 37.125 120.68 37.629 120.368 38.073C120.056 38.517 119.612 38.865 119.036 39.117C118.472 39.369 117.806 39.495 117.038 39.495ZM125.087 31.089V36.579C125.087 36.951 125.171 37.221 125.339 37.389C125.519 37.545 125.819 37.623 126.239 37.623H127.499V39.333H125.879C124.955 39.333 124.247 39.117 123.755 38.685C123.263 38.253 123.017 37.551 123.017 36.579V31.089H121.847V29.415H123.017V26.949H125.087V29.415H127.499V31.089H125.087ZM128.347 34.329C128.347 33.333 128.551 32.451 128.959 31.683C129.379 30.915 129.943 30.321 130.651 29.901C131.371 29.469 132.163 29.253 133.027 29.253C133.807 29.253 134.485 29.409 135.061 29.721C135.649 30.021 136.117 30.399 136.465 30.855V29.415H138.535V39.333H136.465V37.857C136.117 38.325 135.643 38.715 135.043 39.027C134.443 39.339 133.759 39.495 132.991 39.495C132.139 39.495 131.359 39.279 130.651 38.847C129.943 38.403 129.379 37.791 128.959 37.011C128.551 36.219 128.347 35.325 128.347 34.329ZM136.465 34.365C136.465 33.681 136.321 33.087 136.033 32.583C135.757 32.079 135.391 31.695 134.935 31.431C134.479 31.167 133.987 31.035 133.459 31.035C132.931 31.035 132.439 31.167 131.983 31.431C131.527 31.683 131.155 32.061 130.867 32.565C130.591 33.057 130.453 33.645 130.453 34.329C130.453 35.013 130.591 35.613 130.867 36.129C131.155 36.645 131.527 37.041 131.983 37.317C132.451 37.581 132.943 37.713 133.459 37.713C133.987 37.713 134.479 37.581 134.935 37.317C135.391 37.053 135.757 36.669 136.033 36.165C136.321 35.649 136.465 35.049 136.465 34.365ZM142.922 26.013V39.333H140.87V26.013H142.922ZM147.308 26.013V39.333H145.256V26.013H147.308ZM158.732 34.131C158.732 34.503 158.708 34.839 158.66 35.139H151.082C151.142 35.931 151.436 36.567 151.964 37.047C152.492 37.527 153.14 37.767 153.908 37.767C155.012 37.767 155.792 37.305 156.248 36.381H158.462C158.162 37.293 157.616 38.043 156.824 38.631C156.044 39.207 155.072 39.495 153.908 39.495C152.96 39.495 152.108 39.285 151.352 38.865C150.608 38.433 150.02 37.833 149.588 37.065C149.168 36.285 148.958 35.385 148.958 34.365C148.958 33.345 149.162 32.451 149.57 31.683C149.99 30.903 150.572 30.303 151.316 29.883C152.072 29.463 152.936 29.253 153.908 29.253C154.844 29.253 155.678 29.457 156.41 29.865C157.142 30.273 157.712 30.849 158.12 31.593C158.528 32.325 158.732 33.171 158.732 34.131ZM156.59 33.483C156.578 32.727 156.308 32.121 155.78 31.665C155.252 31.209 154.598 30.981 153.818 30.981C153.11 30.981 152.504 31.209 152 31.665C151.496 32.109 151.196 32.715 151.1 33.483H156.59ZM162.443 30.855C162.743 30.351 163.139 29.961 163.631 29.685C164.135 29.397 164.729 29.253 165.413 29.253V31.377H164.891C164.087 31.377 163.475 31.581 163.055 31.989C162.647 32.397 162.443 33.105 162.443 34.113V39.333H160.391V29.415H162.443V30.855Z" fill="white"></path><path d="M28.1458 23.9811L26.7583 22.6321C26.4499 22.3495 26.0835 22.2143 25.659 22.2267C25.2356 22.24 24.8826 22.388 24.5999 22.6707C24.3173 22.9533 24.176 23.313 24.176 23.7498C24.176 24.1866 24.3173 24.5464 24.5999 24.829L28.6083 28.8373C28.8909 29.12 29.2506 29.2613 29.6874 29.2613C30.1242 29.2613 30.4839 29.12 30.7666 28.8373L34.8135 24.7905C35.0961 24.5078 35.2313 24.1543 35.2189 23.7298C35.2056 23.3064 35.0576 22.9533 34.7749 22.6707C34.4923 22.388 34.1326 22.24 33.6958 22.2267C33.2589 22.2143 32.8992 22.3623 32.6166 22.6707L31.2291 23.9811V19.0863C31.2291 18.6495 31.0816 18.2898 30.7866 18.0071C30.4906 17.7245 30.1242 17.5832 29.6874 17.5832C29.2506 17.5832 28.8847 17.7307 28.5898 18.0256C28.2938 18.3216 28.1458 18.688 28.1458 19.1248V23.9811ZM23.5208 34.5415H35.8926C36.3294 34.5415 36.6892 34.3935 36.9718 34.0975C37.2544 33.8025 37.3958 33.4366 37.3958 32.9998C37.3958 32.563 37.2478 32.1966 36.9518 31.9006C36.6568 31.6057 36.2909 31.4582 35.8541 31.4582H23.4822C23.0454 31.4582 22.6857 31.6057 22.403 31.9006C22.1204 32.1966 21.9791 32.563 21.9791 32.9998C21.9791 33.4366 22.1266 33.8025 22.4215 34.0975C22.7175 34.3935 23.0839 34.5415 23.5208 34.5415ZM29.6874 42.2498C27.5548 42.2498 25.5506 41.8449 23.6749 41.035C21.7992 40.2261 20.1676 39.128 18.7801 37.7405C17.3926 36.353 16.2944 34.7214 15.4856 32.8457C14.6757 30.97 14.2708 28.9658 14.2708 26.8332C14.2708 24.7005 14.6757 22.6964 15.4856 20.8207C16.2944 18.945 17.3926 17.3134 18.7801 15.9259C20.1676 14.5384 21.7992 13.4397 23.6749 12.6298C25.5506 11.8209 27.5548 11.4165 29.6874 11.4165C31.8201 11.4165 33.8242 11.8209 35.6999 12.6298C37.5756 13.4397 39.2072 14.5384 40.5947 15.9259C41.9822 17.3134 43.0804 18.945 43.8893 20.8207C44.6991 22.6964 45.1041 24.7005 45.1041 26.8332C45.1041 28.9658 44.6991 30.97 43.8893 32.8457C43.0804 34.7214 41.9822 36.353 40.5947 37.7405C39.2072 39.128 37.5756 40.2261 35.6999 41.035C33.8242 41.8449 31.8201 42.2498 29.6874 42.2498Z" fill="white"></path></g><defs><clipPath id="clip0_3802_33034"><rect width="178.875" height="53" fill="white" transform="translate(0.0625 0.333008)"></rect></clipPath></defs></svg>