<svg width="55" height="55" viewBox="0 0 55 55" fill="none" xmlns="http://www.w3.org/2000/svg">
<circle cx="27.5" cy="27.5" r="27.5" fill="#19323C"/>
<path d="M37.6928 19.1064C35.9195 18.2797 33.9995 17.6797 31.9995 17.3331C31.982 17.3325 31.9645 17.3358 31.9484 17.3427C31.9323 17.3496 31.9179 17.36 31.9062 17.3731C31.6662 17.8131 31.3862 18.3864 31.1995 18.8264C29.0782 18.5064 26.9208 18.5064 24.7995 18.8264C24.6128 18.3731 24.3328 17.8131 24.0795 17.3731C24.0662 17.3464 24.0262 17.3331 23.9862 17.3331C21.9862 17.6797 20.0795 18.2797 18.2928 19.1064C18.2795 19.1064 18.2662 19.1197 18.2528 19.1331C14.6262 24.5597 13.6262 29.8397 14.1195 35.0664C14.1195 35.0931 14.1328 35.1197 14.1595 35.1331C16.5595 36.8931 18.8662 37.9597 21.1462 38.6664C21.1862 38.6797 21.2262 38.6664 21.2395 38.6397C21.7728 37.9064 22.2528 37.1331 22.6662 36.3197C22.6928 36.2664 22.6662 36.2131 22.6128 36.1997C21.8528 35.9064 21.1328 35.5597 20.4262 35.1597C20.3728 35.1331 20.3728 35.0531 20.4128 35.0131C20.5595 34.9064 20.7062 34.7864 20.8528 34.6797C20.8795 34.6531 20.9195 34.6531 20.9462 34.6664C25.5328 36.7597 30.4795 36.7597 35.0128 34.6664C35.0395 34.6531 35.0795 34.6531 35.1062 34.6797C35.2528 34.7997 35.3995 34.9064 35.5462 35.0264C35.5995 35.0664 35.5995 35.1464 35.5328 35.1731C34.8395 35.5864 34.1062 35.9197 33.3462 36.2131C33.2928 36.2264 33.2795 36.2931 33.2928 36.3331C33.7195 37.1464 34.1995 37.9197 34.7195 38.6531C34.7595 38.6664 34.7995 38.6797 34.8395 38.6664C37.1328 37.9597 39.4395 36.8931 41.8395 35.1331C41.8662 35.1197 41.8795 35.0931 41.8795 35.0664C42.4662 29.0264 40.9062 23.7864 37.7462 19.1331C37.7328 19.1197 37.7195 19.1064 37.6928 19.1064ZM23.3595 31.8797C21.9862 31.8797 20.8395 30.6131 20.8395 29.0531C20.8395 27.4931 21.9595 26.2264 23.3595 26.2264C24.7728 26.2264 25.8928 27.5064 25.8795 29.0531C25.8795 30.6131 24.7595 31.8797 23.3595 31.8797ZM32.6528 31.8797C31.2795 31.8797 30.1328 30.6131 30.1328 29.0531C30.1328 27.4931 31.2528 26.2264 32.6528 26.2264C34.0662 26.2264 35.1862 27.5064 35.1728 29.0531C35.1728 30.6131 34.0662 31.8797 32.6528 31.8797Z" fill="#35A6B6"/>
</svg>
