<svg width="150px" height="55" viewBox="0 0 181 55" fill="none" xmlns="http://www.w3.org/2000/svg"><g clip-path="url(#clip0_2247_19247)"><path d="M173.823 54.0073H7.16259C3.49599 54.0073 0.496094 51.0074 0.496094 47.3408V7.34179C0.496094 3.67519 3.49599 0.675293 7.16259 0.675293H173.823C177.489 0.675293 180.489 3.67519 180.489 7.34179V47.3408C180.489 51.0074 177.489 54.0073 173.823 54.0073Z" fill="black"></path><path d="M173.823 0.675293H7.16259C3.49599 0.675293 0.496094 3.67519 0.496094 7.34179V47.3408C0.496094 51.0074 3.49599 54.0073 7.16259 54.0073H173.823C177.489 54.0073 180.489 51.0074 180.489 47.3408V7.34179C180.489 3.67519 177.489 0.675293 173.823 0.675293ZM173.823 1.74139C176.911 1.74139 179.423 4.25389 179.423 7.34179V47.3408C179.423 50.4287 176.911 52.9412 173.823 52.9412H7.16259C4.07469 52.9412 1.56329 50.4287 1.56329 47.3408V7.34179C1.56329 4.25389 4.07469 1.74139 7.16259 1.74139H173.823Z" fill="#404040"></path><path d="M143.071 40.6741H145.559V24.0051H143.071V40.6741ZM165.48 30.0101L162.629 37.2365H162.543L159.583 30.0101H156.903L161.343 40.1101L158.811 45.7286H161.406L168.247 30.0106L165.48 30.0101ZM151.37 38.7807C150.557 38.7807 149.42 38.3729 149.42 37.3651C149.42 36.0786 150.836 35.5854 152.057 35.5854C153.15 35.5854 153.666 35.8209 154.33 36.1427C154.137 37.6869 152.808 38.7806 151.371 38.7806L151.37 38.7807ZM151.672 29.6455C149.87 29.6455 148.005 30.4392 147.233 32.1976L149.441 33.1194C149.913 32.1976 150.792 31.8976 151.714 31.8976C153.001 31.8976 154.309 32.669 154.33 34.0418V34.2132C153.88 33.9558 152.914 33.57 151.736 33.57C149.354 33.57 146.932 34.8777 146.932 37.3224C146.932 39.5526 148.884 40.9895 151.07 40.9895C152.742 40.9895 153.666 40.239 154.244 39.3594H154.33V40.6468H156.733V34.2558C156.733 31.2965 154.522 29.6455 151.672 29.6455V29.6455ZM136.296 32.0392H132.757V26.3259H136.296C138.156 26.3259 139.212 27.8655 139.212 29.1825C139.212 30.4742 138.156 32.0392 136.296 32.0392ZM136.232 24.0055H130.27V40.6745H132.757V34.3596H136.232C138.989 34.3596 141.7 32.3638 141.7 29.1831C141.7 26.003 138.989 24.0062 136.232 24.0062L136.232 24.0055ZM103.725 38.7835C102.006 38.7835 100.567 37.3439 100.567 35.3685C100.567 33.3701 102.006 31.9102 103.725 31.9102C105.422 31.9102 106.753 33.3702 106.753 35.3685C106.753 37.3439 105.422 38.7835 103.725 38.7835ZM106.581 30.9432H106.495C105.937 30.2775 104.863 29.676 103.51 29.676C100.674 29.676 98.0753 32.1681 98.0753 35.3685C98.0753 38.5471 100.674 41.0173 103.51 41.0173C104.863 41.0173 105.937 40.4157 106.495 39.7288H106.581V40.5444C106.581 42.7147 105.422 43.874 103.553 43.874C102.028 43.874 101.083 42.7787 100.696 41.8552L98.527 42.7572C99.1494 44.2603 100.803 46.1082 103.553 46.1082C106.475 46.1082 108.945 44.3894 108.945 40.2005V30.0195H106.582L106.581 30.9432ZM110.664 40.6736H113.154V24.0046H110.664V40.6736ZM116.828 35.1748C116.764 32.9837 118.525 31.867 119.792 31.867C120.781 31.867 121.618 32.3613 121.898 33.0696L116.828 35.1748ZM124.56 33.2842C124.088 32.0176 122.649 29.676 119.706 29.676C116.784 29.676 114.357 31.9743 114.357 35.3467C114.357 38.5258 116.764 41.0174 119.985 41.0174C122.584 41.0174 124.088 39.4284 124.711 38.5044L122.778 37.2154C122.133 38.1607 121.253 38.7836 119.985 38.7836C118.718 38.7836 117.816 38.2035 117.237 37.065L124.818 33.9291L124.56 33.2842ZM64.1512 31.416V33.8217H69.9077C69.7359 35.1749 69.2848 36.1628 68.5973 36.8503C67.7594 37.6878 66.449 38.6117 64.1511 38.6117C60.6068 38.6117 57.8361 35.755 57.8361 32.2108C57.8361 28.6666 60.6068 25.8095 64.1511 25.8095C66.0629 25.8095 67.4588 26.5615 68.4899 27.5281L70.1873 25.8308C68.7477 24.4563 66.8363 23.4038 64.1511 23.4038C59.2959 23.4038 55.2148 27.3562 55.2148 32.2108C55.2148 37.0649 59.2959 41.0174 64.1511 41.0174C66.7713 41.0174 68.7478 40.1581 70.2941 38.5472C71.8837 36.9576 72.3779 34.7238 72.3779 32.9192C72.3779 32.3614 72.3346 31.8458 72.2487 31.416H64.1512ZM78.9232 38.7835C77.2044 38.7835 75.7222 37.3658 75.7222 35.3467C75.7222 33.3061 77.2044 31.9103 78.9232 31.9103C80.6413 31.9103 82.1235 33.3061 82.1235 35.3467C82.1235 37.3658 80.6413 38.7835 78.9232 38.7835ZM78.9232 29.676C75.7862 29.676 73.2305 32.0602 73.2305 35.3467C73.2305 38.6117 75.7862 41.0174 78.9232 41.0174C82.059 41.0174 84.6152 38.6117 84.6152 35.3467C84.6152 32.0602 82.059 29.676 78.9232 29.676ZM91.3402 38.7835C89.6226 38.7835 88.1399 37.3658 88.1399 35.3467C88.1399 33.3061 89.6227 31.9103 91.3402 31.9103C93.059 31.9103 94.5407 33.3061 94.5407 35.3467C94.5407 37.3658 93.059 38.7835 91.3402 38.7835ZM91.3402 29.676C88.2044 29.676 85.6487 32.0602 85.6487 35.3467C85.6487 38.6117 88.2044 41.0174 91.3402 41.0174C94.4772 41.0174 97.0329 38.6117 97.0329 35.3467C97.0329 32.0602 94.4772 29.676 91.3402 29.676Z" fill="white"></path><path d="M28.1139 26.5734L13.9199 41.6394C13.9205 41.6425 13.9215 41.6451 13.922 41.6483C14.3573 43.2843 15.8516 44.4889 17.625 44.4889C18.3339 44.4889 18.9995 44.2973 19.5703 43.9608L19.6157 43.9342L35.5937 34.7142L28.1147 26.5732" fill="#EB3131"></path><path d="M42.4745 24.0083L42.4609 23.999L35.5627 20L27.791 26.9156L35.5897 34.7133L42.4515 30.7541C43.6545 30.1046 44.4712 28.8364 44.4712 27.3739C44.4712 25.9219 43.6655 24.66 42.4744 24.0084" fill="#F6B60B"></path><path d="M13.9173 13.0444C13.832 13.3591 13.7871 13.6887 13.7871 14.0309V40.6539C13.7871 40.9956 13.8314 41.3263 13.9178 41.6398L28.6018 26.9588L13.9178 13.0448" fill="#5778C5"></path><path d="M28.22 27.3423L35.5673 19.9972L19.6073 10.7438C19.0271 10.3963 18.3501 10.1958 17.6256 10.1958C15.8522 10.1958 14.3559 11.4026 13.9205 13.0405C13.9199 13.0421 13.9199 13.0432 13.9199 13.0446L28.2199 27.3426" fill="#3BAD49"></path><path d="M63.6851 13.7165H59.7956V14.679H62.7102C62.631 15.4644 62.3185 16.0811 61.7915 16.529C61.2644 16.977 60.5915 17.2019 59.7957 17.2019C58.9228 17.2019 58.1832 16.8978 57.5771 16.2936C56.9832 15.677 56.6812 14.9144 56.6812 13.9957C56.6812 13.0771 56.9832 12.3145 57.5771 11.6979C58.1832 11.0938 58.9228 10.7917 59.7957 10.7917C60.2437 10.7917 60.6707 10.8688 61.0623 11.0376C61.454 11.2062 61.7685 11.4417 62.0144 11.7438L62.754 11.0042C62.4185 10.6229 61.9936 10.3313 61.4664 10.1188C60.9393 9.90627 60.3894 9.80427 59.7956 9.80427C58.6311 9.80427 57.6437 10.2084 56.8374 11.0147C56.0311 11.8229 55.627 12.8188 55.627 13.9958C55.627 15.1728 56.0311 16.1708 56.8374 16.9771C57.6436 17.7832 58.6311 18.1875 59.7956 18.1875C61.0185 18.1875 61.9935 17.7958 62.7435 16.9999C63.4038 16.3375 63.7413 15.4417 63.7413 14.3209C63.7413 14.1313 63.7184 13.9291 63.685 13.7166L63.6851 13.7165ZM65.1919 9.98326V18.0082H69.8771V17.0227H66.2231V14.477H69.5189V13.5145H66.2231V10.9708H69.8771V9.98323L65.1919 9.98326ZM76.4469 10.9708V9.98326H70.9324V10.9708H73.1741V18.0081H74.2053V10.9708H76.4469ZM81.4394 9.98326H80.4082V18.0082H81.4394V9.98326ZM88.246 10.9708V9.98326H82.7316V10.9708H84.9731V18.0081H86.0043V10.9708H88.246ZM98.652 11.0271C97.8562 10.2083 96.8812 9.8042 95.7166 9.8042C94.55 9.8042 93.5751 10.2083 92.7792 11.0146C91.9834 11.8104 91.5918 12.8083 91.5918 13.9957C91.5918 15.1831 91.9834 16.1811 92.7792 16.977C93.5751 17.7831 94.55 18.1874 95.7166 18.1874C96.8707 18.1874 97.8561 17.7831 98.652 16.977C99.4479 16.1811 99.8394 15.1832 99.8394 13.9957C99.8394 12.8187 99.4478 11.8228 98.652 11.0271ZM93.5188 11.6979C94.1126 11.0938 94.8417 10.7916 95.7166 10.7916C96.5896 10.7916 97.3187 11.0938 97.902 11.6979C98.4958 12.2916 98.7874 13.0665 98.7874 13.9957C98.7874 14.927 98.4958 15.6998 97.902 16.2936C97.3187 16.8977 96.5895 17.2018 95.7166 17.2018C94.8417 17.2018 94.1125 16.8977 93.5188 16.2936C92.9375 15.6873 92.6459 14.927 92.6459 13.9957C92.6459 13.0665 92.9375 12.3041 93.5188 11.6979ZM102.289 13.0104L102.246 11.4624H102.289L106.369 18.0081H107.446V9.98318H106.414V14.6789L106.458 16.2269H106.414L102.514 9.98318H101.258V18.0081H102.289V13.0104Z" fill="white" stroke="white" stroke-width="0.26666" stroke-miterlimit="10"></path></g><defs><clipPath id="clip0_2247_19247"><rect width="180" height="53.333" fill="white" transform="translate(0.492188 0.674316)"></rect></clipPath></defs></svg>