<svg width="55" height="55" viewBox="0 0 55 55" fill="none" xmlns="http://www.w3.org/2000/svg">
<circle cx="27.5" cy="27.5" r="27.5" fill="#19323C"/>
<path d="M32 28C32 28.7911 31.7654 29.5645 31.3259 30.2223C30.8864 30.8801 30.2616 31.3928 29.5307 31.6955C28.7998 31.9983 27.9956 32.0775 27.2196 31.9231C26.4437 31.7688 25.731 31.3878 25.1716 30.8284C24.6122 30.269 24.2312 29.5563 24.0769 28.7804C23.9225 28.0044 24.0017 27.2002 24.3045 26.4693C24.6072 25.7384 25.1199 25.1136 25.7777 24.6741C26.4355 24.2346 27.2089 24 28 24C29.0599 24.0033 30.0754 24.4258 30.8248 25.1752C31.5742 25.9246 31.9967 26.9401 32 28ZM40.5 22.5V33.5C40.5 35.3565 39.7625 37.137 38.4497 38.4497C37.137 39.7625 35.3565 40.5 33.5 40.5H22.5C20.6435 40.5 18.863 39.7625 17.5503 38.4497C16.2375 37.137 15.5 35.3565 15.5 33.5V22.5C15.5 20.6435 16.2375 18.863 17.5503 17.5503C18.863 16.2375 20.6435 15.5 22.5 15.5H33.5C35.3565 15.5 37.137 16.2375 38.4497 17.5503C39.7625 18.863 40.5 20.6435 40.5 22.5ZM34 28C34 26.8133 33.6481 25.6533 32.9888 24.6666C32.3295 23.6799 31.3925 22.9108 30.2961 22.4567C29.1997 22.0026 27.9933 21.8838 26.8295 22.1153C25.6656 22.3468 24.5965 22.9182 23.7574 23.7574C22.9182 24.5965 22.3468 25.6656 22.1153 26.8295C21.8838 27.9933 22.0026 29.1997 22.4567 30.2961C22.9108 31.3925 23.6799 32.3295 24.6666 32.9888C25.6533 33.6481 26.8133 34 28 34C29.5913 34 31.1174 33.3679 32.2426 32.2426C33.3679 31.1174 34 29.5913 34 28ZM36 21.5C36 21.2033 35.912 20.9133 35.7472 20.6666C35.5824 20.42 35.3481 20.2277 35.074 20.1142C34.7999 20.0006 34.4983 19.9709 34.2074 20.0288C33.9164 20.0867 33.6491 20.2296 33.4393 20.4393C33.2296 20.6491 33.0867 20.9164 33.0288 21.2074C32.9709 21.4983 33.0007 21.7999 33.1142 22.074C33.2277 22.3481 33.42 22.5824 33.6666 22.7472C33.9133 22.912 34.2033 23 34.5 23C34.8978 23 35.2794 22.842 35.5607 22.5607C35.842 22.2794 36 21.8978 36 21.5Z" fill="#35A6B6"/>
</svg>
