<svg width="28" height="28" viewBox="0 0 28 28" fill="none" xmlns="http://www.w3.org/2000/svg">
<g clip-path="url(#clip0_3402_26748)">
<path d="M14.0005 0.55957C6.57775 0.55957 0.560547 6.57677 0.560547 13.9996C0.560547 21.4224 6.57775 27.4396 14.0005 27.4396C21.4233 27.4396 27.4405 21.4224 27.4405 13.9996C27.4405 6.57677 21.4233 0.55957 14.0005 0.55957ZM10.7105 19.5702H7.98895V10.8118H10.7105V19.5702ZM9.33295 9.73657C8.47335 9.73657 7.91755 9.12757 7.91755 8.37437C7.91755 7.60577 8.49015 7.01497 9.36795 7.01497C10.2457 7.01497 10.7833 7.60577 10.8001 8.37437C10.8001 9.12757 10.2457 9.73657 9.33295 9.73657ZM20.6505 19.5702H17.9289V14.7164C17.9289 13.5866 17.5341 12.8194 16.5499 12.8194C15.7981 12.8194 15.3515 13.3388 15.1541 13.8386C15.0813 14.0164 15.0631 14.2684 15.0631 14.519V19.5688H12.3401V13.6048C12.3401 12.5114 12.3051 11.5972 12.2687 10.8104H14.6333L14.7579 12.027H14.8125C15.1709 11.4558 16.0487 10.613 17.5173 10.613C19.3079 10.613 20.6505 11.8128 20.6505 14.3916V19.5702V19.5702Z" fill="#35A6B6"/>
</g>
<defs>
<clipPath id="clip0_3402_26748">
<rect width="28" height="28" fill="white"/>
</clipPath>
</defs>
</svg>
