<svg width="55" height="55" viewBox="0 0 55 55" fill="none" xmlns="http://www.w3.org/2000/svg">
<circle cx="27.5" cy="27.5" r="27.5" fill="#19323C"/>
<g clip-path="url(#clip0_2740_17091)">
<path d="M16 17.719C16 16.7695 16.789 16 17.7625 16H38.2375C39.211 16 40 16.7695 40 17.719V38.281C40 39.2305 39.211 40 38.2375 40H17.7625C16.789 40 16 39.2305 16 38.281V17.719ZM23.4145 36.091V25.2535H19.813V36.091H23.4145ZM21.6145 23.773C22.87 23.773 23.6515 22.942 23.6515 21.901C23.629 20.8375 22.8715 20.029 21.6385 20.029C20.4055 20.029 19.6 20.839 19.6 21.901C19.6 22.942 20.3815 23.773 21.5905 23.773H21.6145ZM28.9765 36.091V30.0385C28.9765 29.7145 29.0005 29.3905 29.0965 29.1595C29.356 28.513 29.9485 27.8425 30.9445 27.8425C32.248 27.8425 32.7685 28.8355 32.7685 30.2935V36.091H36.37V29.875C36.37 26.545 34.594 24.997 32.224 24.997C30.313 24.997 29.4565 26.047 28.9765 26.7865V26.824H28.9525C28.9605 26.8115 28.9685 26.799 28.9765 26.7865V25.2535H25.3765C25.4215 26.2705 25.3765 36.091 25.3765 36.091H28.9765Z" fill="#35A6B6"/>
</g>
<defs>
<clipPath id="clip0_2740_17091">
<rect width="32" height="32" fill="white" transform="translate(12 12)"/>
</clipPath>
</defs>
</svg>
