<svg width="240" height="56" viewBox="0 0 240 56" fill="none" xmlns="http://www.w3.org/2000/svg">
<path fill-rule="evenodd" clip-rule="evenodd" d="M56 28C56 43.464 43.464 56 28 56C12.536 56 0 43.464 0 28C0 12.536 12.536 0 28 0C43.464 0 56 12.536 56 28ZM25.1705 25.2491C24.6891 26.3495 24.6793 27.3319 24.6793 28.2063V34.0912V42.9333H20.3663V25.4849H14.1474V21.6337H28.6877C27.1354 22.4 25.8976 23.6575 25.1705 25.2295V25.2393V25.2491ZM40.1432 14.7172C39.6716 14.3046 39.1509 13.9607 38.5811 13.6856C37.353 13.1256 36.007 12.8309 34.6512 12.8309H34.4154H25.5537C25.5537 13.047 25.5832 13.2632 25.6421 13.4695C26.0351 14.7958 26.8407 15.9747 27.9312 16.8393C29.0905 17.753 30.5249 18.2639 31.9986 18.2835V15.3361V15.1691L32.146 15.2575L35.6926 17.3207L40.0449 19.8456L40.1923 19.934L40.0449 20.0225L35.6926 22.5474L32.146 24.6007L31.9986 24.6891V24.5221V21.673C31.9986 21.673 31.1635 21.7025 30.5151 21.8695C28.5305 22.3705 26.9586 23.5986 26.0547 25.4358C25.6519 26.2611 25.5635 26.8309 25.5635 27.3712V33.9832H29.9944V27.1551V27.0568H30.0926H34.4154H34.6611C36.0168 27.0568 37.353 26.7719 38.5909 26.2316C39.1509 25.9663 39.6814 25.6225 40.153 25.2197C41.5579 24.0014 42.2653 22.2526 42.2653 19.9635C42.2849 17.7039 41.5677 15.9747 40.1432 14.7172ZM52.6227 26.635L52.7926 26.4613L52.933 26.5987L52.6358 26.9026C52.6319 26.8133 52.6276 26.7241 52.6227 26.635ZM52.6227 26.635L27.179 52.6463C25.1114 52.5791 23.0868 52.2582 21.1418 51.6985L51.5617 20.6834C52.1536 22.5982 52.512 24.5939 52.6227 26.635ZM51.4949 20.4708L51.597 20.3668L51.7373 20.5044L51.5617 20.6834C51.5398 20.6124 51.5175 20.5416 51.4949 20.4708ZM51.4949 20.4708L20.9279 51.6359C17.0525 50.4823 13.4999 48.3771 10.5614 45.4386C5.90456 40.7818 3.34035 34.5825 3.34035 28C3.34035 21.4175 5.90456 15.2182 10.5614 10.5614C15.2182 5.90456 21.4175 3.34035 28 3.34035C34.5825 3.34035 40.7818 5.90456 45.4386 10.5614C48.2611 13.3839 50.3149 16.7731 51.4949 20.4708ZM20.9279 51.6359C20.9991 51.6571 21.0704 51.6779 21.1418 51.6985L20.898 51.947L20.7577 51.8095L20.9279 51.6359ZM27.4467 52.6536L52.6358 26.9026C52.6517 27.2671 52.6596 27.6329 52.6596 28C52.6596 34.5825 50.0954 40.7818 45.4386 45.4386C40.7818 50.0954 34.5825 52.6596 28 52.6596C27.8153 52.6596 27.6308 52.6576 27.4467 52.6536ZM27.4467 52.6536L27.0869 53.0214L26.9464 52.884L27.179 52.6463C27.2681 52.6492 27.3574 52.6516 27.4467 52.6536ZM10.2175 45.7825C14.9628 50.5375 21.28 53.1509 28 53.1509C34.72 53.1509 41.0372 50.5375 45.7825 45.7825C50.5375 41.0372 53.1509 34.72 53.1509 28C53.1509 21.28 50.5375 14.9726 45.7825 10.2175C41.0372 5.46246 34.72 2.84912 28 2.84912C21.28 2.84912 14.9726 5.47228 10.2175 10.2175C5.46246 14.9628 2.84912 21.28 2.84912 28C2.84912 34.72 5.46246 41.0274 10.2175 45.7825Z" fill="white"/>
<path d="M79.9251 17.0419H69.6582V10.6426H97.8476V17.0305H87.5732V45.8368H79.9251V17.0419Z" fill="white"/>
<path d="M101.207 10.6426H108.855V45.8368H101.207V10.6426Z" fill="white"/>
<path d="M152.721 17.0419H142.473V10.6426H170.651V17.0305H160.384V45.8368H152.721V17.0419Z" fill="white"/>
<path d="M179.479 44.2665C176.669 42.7778 174.327 40.5391 172.713 37.7991C171.037 34.9059 170.185 31.6092 170.249 28.2664C170.187 24.9142 171.039 21.6083 172.713 18.7034C174.323 15.9543 176.666 13.7072 179.479 12.2133C182.424 10.648 185.715 9.84772 189.05 9.88591C192.374 9.83702 195.655 10.634 198.586 12.2019C201.388 13.7065 203.72 15.9566 205.323 18.7034C207 21.6073 207.853 24.9136 207.79 28.2664C207.855 31.6098 207.001 34.9069 205.323 37.7991C203.719 40.5301 201.395 42.7674 198.605 44.2665C195.67 45.8415 192.381 46.6425 189.05 46.5938C185.715 46.632 182.424 45.8317 179.479 44.2665ZM194.575 38.151C196.226 37.2336 197.589 35.8748 198.511 34.2267C199.466 32.3941 199.967 30.3589 199.972 28.2923C199.976 26.2257 199.484 24.1883 198.537 22.3515C197.623 20.7012 196.263 19.3413 194.613 18.4271C192.892 17.5175 190.974 17.042 189.027 17.042C187.08 17.042 185.163 17.5175 183.442 18.4271C181.787 19.3442 180.419 20.7028 179.491 22.3515C178.534 24.1844 178.034 26.2214 178.034 28.2891C178.034 30.3567 178.534 32.3938 179.491 34.2267C180.422 35.8823 181.8 37.2423 183.468 38.151C185.179 39.083 187.101 39.5599 189.05 39.5361C190.981 39.5611 192.885 39.0838 194.575 38.151Z" fill="white"/>
<path d="M142.084 22.5294C142.084 26.3515 140.901 29.2869 138.534 31.3355C137.743 32.0176 136.862 32.588 135.916 33.0309C133.723 33.9961 131.344 34.4651 128.949 34.4046H121.804V45.837H114.156V37.1331C114.156 35.3166 114.004 33.6553 114.723 31.941C115.874 29.2097 118.047 27.0367 120.778 25.8861C121.119 25.746 125.111 24.7016 125.111 25.027V30.0564L130.973 26.6694L138.163 22.5067L130.973 18.3439L125.111 14.938V19.9712C122.578 19.9728 120.117 19.1213 118.126 17.554C116.135 15.9867 114.73 13.7949 114.137 11.3316V10.6428H128.93C131.325 10.5817 133.703 11.0684 135.881 12.0657C136.826 12.5183 137.705 13.0976 138.493 13.7876C140.889 15.8917 142.086 18.8056 142.084 22.5294Z" fill="white"/>
<path d="M239.953 22.5293C239.953 26.3515 238.771 29.2869 236.407 31.3354C235.614 32.0176 234.732 32.588 233.785 33.0308C231.593 33.9955 229.215 34.4645 226.821 34.4045H219.677V45.837H212.025V37.133C212.025 35.3165 211.873 33.6552 212.592 31.9409C213.743 29.2097 215.916 27.0366 218.647 25.886C218.992 25.746 222.98 24.7015 222.98 25.027V30.0563L228.842 26.6694L236.055 22.5066L228.842 18.3439L222.98 14.938V19.9711C220.447 19.9727 217.986 19.1213 215.995 17.554C214.004 15.9867 212.599 13.7948 212.006 11.3315V10.6428H226.803C229.197 10.582 231.573 11.0687 233.751 12.0657C234.696 12.5164 235.575 13.0958 236.362 13.7875C238.759 15.8916 239.956 18.8055 239.953 22.5293Z" fill="white"/>
</svg>
