<svg width="55" height="55" viewBox="0 0 55 55" fill="none" xmlns="http://www.w3.org/2000/svg">
<circle cx="27.5" cy="27.5" r="27.5" fill="#19323C"/>
<g clip-path="url(#clip0_3028_27877)">
<path d="M22.666 20C24.7877 20 26.8226 20.8429 28.3229 22.3431C29.8232 23.8434 30.666 25.8783 30.666 28C30.666 30.1217 29.8232 32.1566 28.3229 33.6569C26.8226 35.1571 24.7877 36 22.666 36C20.5443 36 18.5095 35.1571 17.0092 33.6569C15.5089 32.1566 14.666 30.1217 14.666 28C14.666 25.8783 15.5089 23.8434 17.0092 22.3431C18.5095 20.8429 20.5443 20 22.666 20V20ZM34.666 21.3333C36.666 21.3333 37.9993 24.3187 37.9993 28C37.9993 31.6813 36.666 34.6667 34.666 34.6667C32.666 34.6667 31.3327 31.6813 31.3327 28C31.3327 24.3187 32.666 21.3333 34.666 21.3333ZM39.9993 22C40.506 22 40.9487 23.1027 41.1727 24.9947L41.2353 25.5853L41.2607 25.8987L41.3007 26.5573L41.314 26.9027L41.33 27.624L41.3327 28L41.33 28.376L41.314 29.0973L41.3007 29.444L41.2607 30.1013L41.234 30.4147L41.174 31.0053C40.9487 32.8987 40.5073 34 39.9993 34C39.4927 34 39.05 32.8973 38.826 31.0053L38.7633 30.4147C38.7542 30.3103 38.7457 30.2058 38.738 30.1013L38.698 29.4427C38.6929 29.3276 38.6884 29.2125 38.6847 29.0973L38.6687 28.376V27.624L38.6847 26.9027L38.698 26.556L38.738 25.8987L38.7647 25.5853L38.8247 24.9947C39.05 23.1013 39.4913 22 39.9993 22Z" fill="#35A6B6"/>
</g>
<defs>
<clipPath id="clip0_3028_27877">
<rect width="32" height="32" fill="white" transform="translate(12 12)"/>
</clipPath>
</defs>
</svg>
