<svg class="mute" width="55" height="55" viewBox="0 0 55 55" fill="none" xmlns="http://www.w3.org/2000/svg"><circle cx="27.5" cy="27.5" r="27.5" fill="#19323C"></circle><path d="M28.43 20.1C28.2676 20.0297 28.0895 20.0038 27.9138 20.0249C27.7381 20.046 27.5712 20.1133 27.43 20.22L22.65 24H19C18.7348 24 18.4804 24.1053 18.2929 24.2929C18.1054 24.4804 18 24.7348 18 25V31C18 31.2652 18.1054 31.5195 18.2929 31.7071C18.4804 31.8946 18.7348 32 19 32H22.65L27.38 35.78C27.5559 35.9211 27.7744 35.9987 28 36C28.1494 36.0024 28.297 35.9681 28.43 35.9C28.6002 35.8189 28.744 35.6914 28.8448 35.5322C28.9457 35.373 28.9995 35.1885 29 35V21C28.9995 20.8115 28.9457 20.627 28.8448 20.4677C28.744 20.3085 28.6002 20.181 28.43 20.1V20.1ZM27 32.92L23.62 30.22C23.4441 30.0788 23.2256 30.0013 23 30H20V26H23C23.2256 25.9987 23.4441 25.9211 23.62 25.78L27 23.08V32.92ZM35.91 28L37.71 26.21C37.8032 26.1167 37.8772 26.006 37.9277 25.8842C37.9781 25.7624 38.0041 25.6318 38.0041 25.5C38.0041 25.3681 37.9781 25.2375 37.9277 25.1157C37.8772 24.9939 37.8032 24.8832 37.71 24.79C37.6168 24.6967 37.5061 24.6228 37.3842 24.5723C37.2624 24.5219 37.1319 24.4959 37 24.4959C36.8681 24.4959 36.7376 24.5219 36.6158 24.5723C36.4939 24.6228 36.3832 24.6967 36.29 24.79L34.5 26.59L32.71 24.79C32.5217 24.6017 32.2663 24.4959 32 24.4959C31.7337 24.4959 31.4783 24.6017 31.29 24.79C31.1017 24.9783 30.9959 25.2337 30.9959 25.5C30.9959 25.7663 31.1017 26.0217 31.29 26.21L33.09 28L31.29 29.79C31.1963 29.8829 31.1219 29.9935 31.0711 30.1154C31.0203 30.2373 30.9942 30.368 30.9942 30.5C30.9942 30.632 31.0203 30.7627 31.0711 30.8845C31.1219 31.0064 31.1963 31.117 31.29 31.21C31.383 31.3037 31.4936 31.3781 31.6154 31.4289C31.7373 31.4796 31.868 31.5058 32 31.5058C32.132 31.5058 32.2627 31.4796 32.3846 31.4289C32.5064 31.3781 32.617 31.3037 32.71 31.21L34.5 29.41L36.29 31.21C36.383 31.3037 36.4936 31.3781 36.6154 31.4289C36.7373 31.4796 36.868 31.5058 37 31.5058C37.132 31.5058 37.2627 31.4796 37.3846 31.4289C37.5064 31.3781 37.617 31.3037 37.71 31.21C37.8037 31.117 37.8781 31.0064 37.9289 30.8845C37.9797 30.7627 38.0058 30.632 38.0058 30.5C38.0058 30.368 37.9797 30.2373 37.9289 30.1154C37.8781 29.9935 37.8037 29.8829 37.71 29.79L35.91 28Z" fill="white"></path></svg>