<svg width="55" height="55" viewBox="0 0 55 55" fill="none" xmlns="http://www.w3.org/2000/svg">
<circle cx="27.5" cy="27.5" r="27.5" fill="#19323C"/>
<path d="M25.814 28.9031C25.814 28.1335 25.1794 27.499 24.4099 27.499C23.6404 27.499 23.0059 28.1335 23.0059 28.9031C23.0059 29.2755 23.1538 29.6326 23.4171 29.8959C23.6804 30.1592 24.0375 30.3071 24.4099 30.3071C24.7823 30.3071 25.1394 30.1592 25.4027 29.8959C25.666 29.6326 25.814 29.2755 25.814 28.9031V28.9031ZM30.3231 32.1027C29.7156 32.7102 28.4196 32.9262 27.5015 32.9262C26.5835 32.9262 25.2874 32.7102 24.6799 32.1027C24.6471 32.0675 24.6074 32.0395 24.5632 32.0203C24.5191 32.0012 24.4715 31.9913 24.4234 31.9913C24.3753 31.9913 24.3277 32.0012 24.2836 32.0203C24.2395 32.0395 24.1997 32.0675 24.1669 32.1027C24.1317 32.1355 24.1037 32.1752 24.0846 32.2194C24.0654 32.2635 24.0555 32.3111 24.0555 32.3592C24.0555 32.4073 24.0654 32.4549 24.0846 32.499C24.1037 32.5432 24.1317 32.5829 24.1669 32.6157C25.1254 33.5742 26.9615 33.6552 27.5015 33.6552C28.0415 33.6552 29.8776 33.5742 30.8361 32.6157C30.8713 32.5829 30.8993 32.5432 30.9185 32.499C30.9377 32.4549 30.9475 32.4073 30.9475 32.3592C30.9475 32.3111 30.9377 32.2635 30.9185 32.2194C30.8993 32.1752 30.8713 32.1355 30.8361 32.1027C30.7011 31.9677 30.4716 31.9677 30.3231 32.1027V32.1027ZM30.5931 27.499C29.8236 27.499 29.1891 28.1335 29.1891 28.9031C29.1891 29.6726 29.8236 30.3071 30.5931 30.3071C31.3627 30.3071 31.9972 29.6726 31.9972 28.9031C31.9972 28.1335 31.3762 27.499 30.5931 27.499Z" fill="#35A6B6"/>
<path d="M27.5005 13.999C20.0482 13.999 14 20.0472 14 27.4995C14 34.9518 20.0482 41 27.5005 41C34.9528 41 41.001 34.9518 41.001 27.4995C41.001 20.0472 34.9528 13.999 27.5005 13.999ZM35.3308 29.2951C35.3578 29.4841 35.3713 29.6866 35.3713 29.8891C35.3713 32.9132 31.8476 35.3703 27.5005 35.3703C23.1533 35.3703 19.6297 32.9132 19.6297 29.8891C19.6297 29.6866 19.6432 29.4841 19.6702 29.2951C18.9817 28.9846 18.5092 28.296 18.5092 27.4995C18.5072 27.1124 18.6196 26.7333 18.8324 26.4098C19.0451 26.0864 19.3487 25.8331 19.705 25.6816C20.0613 25.5301 20.4544 25.4873 20.8349 25.5586C21.2154 25.6298 21.5664 25.8119 21.8438 26.082C23.2073 25.0964 25.0974 24.4754 27.19 24.4079L28.189 19.6962C28.2025 19.6017 28.2565 19.5207 28.3375 19.4802C28.4185 19.4262 28.513 19.4127 28.6075 19.4262L31.8746 20.1282C31.9855 19.9036 32.1544 19.7126 32.3638 19.5752C32.5733 19.4378 32.8157 19.359 33.0659 19.3469C33.3162 19.3347 33.5651 19.3898 33.7868 19.5063C34.0086 19.6228 34.1952 19.7965 34.3272 20.0094C34.4592 20.2223 34.5318 20.4667 34.5376 20.7171C34.5433 20.9676 34.4819 21.215 34.3598 21.4337C34.2377 21.6525 34.0593 21.8345 33.843 21.9611C33.6268 22.0876 33.3807 22.154 33.1302 22.1533C32.3742 22.1533 31.7666 21.5593 31.7261 20.8168L28.7965 20.1957L27.9055 24.4079C29.9711 24.4754 31.8206 25.1099 33.1707 26.082C33.3777 25.8843 33.6253 25.7343 33.8963 25.6424C34.1673 25.5505 34.4551 25.5189 34.7396 25.5498C35.0241 25.5807 35.2984 25.6734 35.5433 25.8214C35.7882 25.9695 35.9978 26.1692 36.1575 26.4067C36.3171 26.6442 36.423 26.9137 36.4676 27.1963C36.5122 27.479 36.4945 27.768 36.4158 28.0431C36.337 28.3182 36.1991 28.5728 36.0117 28.7891C35.8243 29.0053 35.5919 29.178 35.3308 29.2951V29.2951Z" fill="#35A6B6"/>
</svg>
