<svg width="41" height="40" viewBox="0 0 41 40" fill="none" xmlns="http://www.w3.org/2000/svg"><path d="M28.5 12.125C28.8333 11.8125 29.0417 11.375 29.0417 10.8958V9.375C29.0417 8.4375 28.2917 7.6875 27.3542 7.6875H25.2083C25.2708 7.52083 25.2917 7.35417 25.2917 7.16667V5.625C25.2917 5.4375 25.25 5.27083 25.2083 5.10417H29.8542C30.7917 5.10417 31.5417 4.35417 31.5417 3.41667V1.875C31.5417 0.9375 30.7917 0.1875 29.8542 0.1875H10.8125C9.875 0.1875 9.125 0.9375 9.125 1.875V3.41667C9.125 3.60417 9.16667 3.77083 9.20833 3.9375H4.5625C3.625 3.9375 2.875 4.6875 2.875 5.625V7.16667C2.875 8.10417 3.625 8.85417 4.5625 8.85417H6.70833C6.66667 9.02083 6.625 9.1875 6.625 9.375V10.9167C6.625 11.1042 6.66667 11.2708 6.70833 11.4375H2.0625C1.125 11.4375 0.375 12.1875 0.375 13.125V14.6667C0.375 15.0833 0.541666 15.4792 0.791666 15.7708C0.541666 16.0625 0.375 16.4583 0.375 16.875V18.4167C0.375 18.8333 0.541666 19.2292 0.791666 19.5208C0.541666 19.8125 0.375 20.2083 0.375 20.625V22.1667C0.375 22.5833 0.541666 22.9792 0.791666 23.2708C0.541666 23.5625 0.375 23.9583 0.375 24.375V25.9167C0.375 26.3333 0.541666 26.7292 0.791666 27.0208C0.541666 27.3125 0.375 27.7083 0.375 28.125V29.6667C0.375 30.0833 0.541666 30.4792 0.791666 30.7708C0.541666 31.0625 0.375 31.4583 0.375 31.875V33.4167C0.375 34.3542 1.125 35.1042 2.0625 35.1042H15.8958C18.4583 38 22.1875 39.8333 26.3542 39.8333C34.0417 39.8333 40.2917 33.5833 40.2917 25.8958C40.2917 18.9375 35.1667 13.1667 28.5 12.125ZM25.7708 13.1458V15.8958C22.4583 16.0833 19.5833 17.8958 17.8958 20.5417L15.9167 18.5625C18.125 15.4375 21.7083 13.3333 25.7708 13.1458ZM26.3542 17.0417C31.2292 17.0417 35.2083 21.0208 35.2083 25.8958C35.2083 30.7708 31.2292 34.75 26.3542 34.75C21.4792 34.75 17.5 30.7708 17.5 25.8958C17.5 21.0208 21.4792 17.0417 26.3542 17.0417ZM27.3542 8.85417C27.6458 8.85417 27.875 9.08333 27.875 9.375V10.9167C27.875 11.2083 27.6458 11.4375 27.3542 11.4375H21.1042H8.3125C8.02083 11.4375 7.79167 11.2083 7.79167 10.9167V9.375C7.79167 9.08333 8.02083 8.85417 8.3125 8.85417H23.6042H27.3542ZM10.2917 1.875C10.2917 1.58333 10.5208 1.35417 10.8125 1.35417H29.8542C30.1458 1.35417 30.375 1.58333 30.375 1.875V3.41667C30.375 3.70833 30.1458 3.9375 29.8542 3.9375H23.6042H10.8125C10.5208 3.9375 10.2917 3.70833 10.2917 3.41667V1.875ZM4.5625 7.66667C4.27083 7.66667 4.04167 7.4375 4.04167 7.14583V5.625C4.04167 5.33333 4.27083 5.10417 4.5625 5.10417H10.8125H23.6042C23.8958 5.10417 24.125 5.33333 24.125 5.625V7.16667C24.125 7.45833 23.8958 7.6875 23.6042 7.6875H8.3125H4.5625V7.66667ZM1.54167 13.125C1.54167 12.8333 1.77083 12.6042 2.0625 12.6042H8.3125H21.1042C21.2917 12.6042 21.4375 12.7083 21.5208 12.8333C20.0417 13.3958 18.6667 14.1875 17.4583 15.1875H2.0625C1.77083 15.1875 1.54167 14.9583 1.54167 14.6667V13.125ZM1.54167 16.875C1.54167 16.5833 1.77083 16.3542 2.0625 16.3542H16.2292C15.5 17.125 14.8542 18 14.3125 18.9375H2.0625C1.77083 18.9375 1.54167 18.7083 1.54167 18.4167V16.875ZM1.54167 20.625C1.54167 20.3333 1.77083 20.1042 2.0625 20.1042H13.6875C13.3125 20.9167 13.0208 21.7917 12.7917 22.6875H2.0625C1.77083 22.6875 1.54167 22.4583 1.54167 22.1667V20.625ZM1.54167 24.375C1.54167 24.0833 1.77083 23.8542 2.0625 23.8542H12.5833C12.4792 24.5208 12.4375 25.2083 12.4375 25.8958C12.4375 26.0833 12.4375 26.25 12.4583 26.4167H2.0625C1.77083 26.4167 1.54167 26.1875 1.54167 25.8958V24.375ZM1.54167 28.125C1.54167 27.8333 1.77083 27.6042 2.0625 27.6042H12.5208C12.625 28.5 12.8125 29.3542 13.0833 30.1875H2.04167C1.75 30.1875 1.52083 29.9583 1.52083 29.6667V28.125H1.54167ZM2.0625 33.9167C1.77083 33.9167 1.54167 33.6875 1.54167 33.3958V31.875C1.54167 31.5833 1.77083 31.3542 2.0625 31.3542H13.5417C13.9375 32.2708 14.4167 33.125 14.9792 33.9375H2.0625V33.9167ZM26.3542 38.6458C19.3125 38.6458 13.5833 32.9167 13.5833 25.875C13.5833 23.5833 14.1875 21.4167 15.2708 19.5625L17.2917 21.5833C16.6667 22.8958 16.3125 24.3333 16.3125 25.875C16.3125 31.3958 20.8125 35.8958 26.3333 35.8958C31.8542 35.8958 36.3542 31.3958 36.3542 25.875C36.3542 20.5417 32.1667 16.1667 26.9167 15.875V13.1458C33.6875 13.4583 39.0833 19.0625 39.0833 25.8958C39.125 32.9375 33.3958 38.6458 26.3542 38.6458Z" fill="#35A6B6"></path><path d="M26.2493 26.4375H26.3327C27.1452 26.5 27.7702 27.1667 27.7285 28C27.7077 28.8334 26.9993 29.4792 26.166 29.4584H26.1452H26.1243C26.0618 29.4584 25.3952 29.4584 25.2493 28.7709C25.1868 28.4584 24.8743 28.25 24.5618 28.3125C24.2493 28.375 24.041 28.6875 24.1035 29C24.3118 30.0834 25.1452 30.5 25.7702 30.6042V31.5625C25.7702 31.8959 26.041 32.1459 26.3535 32.1459C26.666 32.1459 26.9368 31.875 26.9368 31.5625V30.5417C28.0202 30.2292 28.8535 29.25 28.8952 28.0625C28.9368 26.6042 27.8535 25.3959 26.4368 25.2917H26.3743C25.5827 25.2292 24.9785 24.5417 24.9993 23.75C25.0202 22.9167 25.7285 22.25 26.5618 22.2917C26.5618 22.2917 27.3535 22.3334 27.4785 22.7917C27.5618 23.1042 27.8743 23.2917 28.1868 23.2292C28.4993 23.1459 28.6868 22.8334 28.6243 22.5209C28.3952 21.625 27.5827 21.25 26.9577 21.1459V20.0417C26.9577 19.7084 26.6868 19.4584 26.3743 19.4584C26.0618 19.4584 25.791 19.7292 25.791 20.0417V21.2084C24.6868 21.5209 23.8743 22.5 23.8327 23.6875C23.7702 25.1042 24.8535 26.3125 26.2493 26.4375Z" fill="#35A6B6"></path></svg>