<svg width="46" height="44" viewBox="0 0 46 44" fill="none" xmlns="http://www.w3.org/2000/svg"><path d="M43.1464 26.5832C42.6881 26.2082 42.1881 25.8957 41.6881 25.6457C42.0631 17.9582 37.3964 12.3124 37.3131 12.2291C37.1048 11.9791 36.7297 11.9582 36.4797 12.1666C36.2297 12.3749 36.2089 12.7499 36.4172 12.9999C36.6881 13.3124 40.8131 18.3541 40.5839 25.2707C38.2922 24.6874 35.7922 25.3957 34.1464 27.2916C33.8131 27.6249 31.1256 30.4582 32.2089 36.8749C32.5422 38.8124 32.5214 40.3332 32.1464 41.7499C32.0631 42.1041 32.1672 42.4791 32.4172 42.6874C32.5631 42.8124 32.7506 42.8749 32.9381 42.8749C33.0631 42.8749 33.1672 42.8541 33.2922 42.7916C35.5839 41.7707 41.2297 38.9999 43.8756 35.5624C46.1464 32.9166 45.8339 28.8541 43.1464 26.5832ZM42.9589 34.8541C40.6256 37.8749 35.6047 40.4582 33.3964 41.4791C33.6881 40.0624 33.6672 38.5207 33.3547 36.6666C32.3339 30.6457 34.9381 28.1457 34.9589 28.1249L35.0214 28.0624C36.0631 26.8541 37.5214 26.2291 39.0006 26.2291C39.5006 26.2291 40.0006 26.3124 40.4797 26.4582C40.1464 29.5624 38.8964 32.9791 36.0631 36.5207C35.8547 36.7707 35.8964 37.1457 36.1464 37.3541C36.2506 37.4374 36.3756 37.4791 36.5214 37.4791C36.6881 37.4791 36.8547 37.3957 36.9797 37.2707C39.8756 33.6874 41.1881 30.1666 41.5631 26.9374C41.8547 27.1041 42.1256 27.2916 42.3756 27.4999C44.5839 29.3332 44.8339 32.6457 42.9589 34.8541Z" fill="#35A6B6"></path><path d="M5.10354 18.0208C5.16604 18.0416 5.24937 18.0625 5.31187 18.0625C5.54104 18.0625 5.7702 17.9166 5.85354 17.6875C5.8952 17.6041 8.4577 11.4166 14.8119 8.29163C15.3744 10.4791 17.0827 12.3125 19.416 12.8958C19.6035 12.9583 20.291 13.1875 21.416 13.1875C23.1035 13.1875 25.7077 12.6875 28.8744 10.3958C30.4785 9.24996 31.8327 8.58329 33.291 8.29163C33.6452 8.22913 33.9369 7.95829 34.0202 7.62496C34.1035 7.31246 33.9785 6.99996 33.7285 6.77079C31.791 5.16663 26.8119 1.33329 22.5619 0.479128C19.1452 -0.375039 15.666 1.70829 14.8119 5.12496C14.666 5.81246 14.6035 6.45829 14.6452 7.10413C7.6452 10.3541 4.8327 17.1666 4.79104 17.25C4.66604 17.5625 4.81187 17.8958 5.10354 18.0208ZM15.9577 5.45829C16.541 3.08329 18.6869 1.49996 21.041 1.49996C21.4577 1.49996 21.8952 1.54163 22.3327 1.66663C26.0202 2.39579 30.3744 5.60413 32.4994 7.31246C31.1035 7.68746 29.7285 8.37496 28.2077 9.47913C23.2494 13.0625 19.8535 11.8333 19.8327 11.8125L19.7702 11.7916C17.7702 11.2916 16.3327 9.70829 15.9369 7.83329C18.8327 6.66663 22.416 6.14579 26.8119 6.99996C27.1244 7.06246 27.4369 6.85413 27.4994 6.54163C27.5619 6.22913 27.3535 5.91663 27.041 5.85413C22.541 4.97913 18.8327 5.45829 15.8119 6.60413C15.8327 6.22913 15.8744 5.83329 15.9577 5.45829Z" fill="#35A6B6"></path><path d="M25.1038 42.3958C24.9997 42.4166 18.3747 43.3333 12.4788 39.4166C14.2497 37.6874 14.9372 34.9999 13.9997 32.5416C13.8747 32.0833 12.6455 28.3749 6.49967 26.2708C4.62467 25.6249 3.31217 24.8958 2.22884 23.8958C1.958 23.6458 1.583 23.5624 1.2705 23.6874C0.958002 23.7916 0.770502 24.0833 0.728835 24.4166C0.541335 26.9374 0.291336 33.2083 2.06217 37.1458C3.04134 39.6666 5.47884 41.2083 8.0205 41.2083C8.79134 41.2083 9.583 41.0624 10.333 40.7708C10.7497 40.6041 11.1455 40.3958 11.4997 40.1666C15.833 43.1458 20.6038 43.6458 23.2288 43.6458C24.458 43.6458 25.2288 43.5416 25.2497 43.5416C25.5622 43.4999 25.7913 43.1874 25.7497 42.8749C25.708 42.5624 25.4163 42.3333 25.1038 42.3958ZM9.91634 39.6874C7.22884 40.7291 4.18717 39.3958 3.1455 36.6874C1.60384 33.2499 1.68717 27.8541 1.85384 25.1249C2.97884 26.0416 4.333 26.7708 6.10384 27.3749C11.8747 29.3333 12.8538 32.8124 12.8538 32.8541L12.8747 32.9166C13.6872 34.9999 13.0622 37.2916 11.4788 38.7083C8.99967 36.8124 6.72884 33.9583 5.24967 29.7291C5.1455 29.4166 4.81217 29.2708 4.49967 29.3749C4.18717 29.4791 4.04134 29.8124 4.1455 30.1249C5.66634 34.4374 7.958 37.3958 10.4788 39.4166C10.3122 39.5208 10.1247 39.6041 9.91634 39.6874Z" fill="#35A6B6"></path><path d="M29.3333 17.6458C28.6875 16.9999 27.6458 16.9999 27 17.6458L19.9167 24.7291L18.1042 22.9166C17.4583 22.2708 16.4167 22.2708 15.7708 22.9166L14.0417 24.6458C13.7292 24.9583 13.5625 25.3749 13.5625 25.8124C13.5625 26.2499 13.7292 26.6666 14.0417 26.9791L18.2917 31.2291C18.7292 31.6666 19.3125 31.8958 19.9167 31.8958C20.5208 31.8958 21.1042 31.6666 21.5417 31.2291L31.0625 21.7083C31.7083 21.0624 31.7083 20.0208 31.0625 19.3749L29.3333 17.6458ZM30.2292 20.8958L20.7083 30.4166C20.2708 30.8541 19.5625 30.8541 19.125 30.4166L14.875 26.1458C14.7917 26.0624 14.7292 25.9374 14.7292 25.8124C14.7292 25.6874 14.7708 25.5624 14.875 25.4791L16.6042 23.7499C16.6875 23.6666 16.8125 23.6041 16.9375 23.6041C17.0625 23.6041 17.1875 23.6458 17.2708 23.7499L19.125 25.6041C19.5625 26.0416 20.2917 26.0416 20.7292 25.6041L27.8333 18.4999C28.0208 18.3124 28.3125 18.3124 28.5 18.4999L30.2292 20.2291C30.4167 20.3958 30.4167 20.7083 30.2292 20.8958Z" fill="#35A6B6"></path></svg>