<svg width="55" height="55" viewBox="0 0 55 55" fill="none" xmlns="http://www.w3.org/2000/svg">
<circle cx="27.5" cy="27.5" r="27.5" fill="#19323C"/>
<path d="M34.1335 19.76C34.1335 19.76 34.8135 20.4267 34.1335 19.76C33.2221 18.7195 32.7198 17.3832 32.7202 16H28.6002V32.5333C28.5684 33.428 28.1907 34.2755 27.5466 34.8973C26.9024 35.519 26.0421 35.8665 25.1469 35.8667C23.2535 35.8667 21.6802 34.32 21.6802 32.4C21.6802 30.1067 23.8935 28.3867 26.1735 29.0933V24.88C21.5735 24.2667 17.5469 27.84 17.5469 32.4C17.5469 36.84 21.2269 40 25.1335 40C29.3202 40 32.7202 36.6 32.7202 32.4V24.0133C34.3909 25.2131 36.3967 25.8569 38.4535 25.8533V21.7333C38.4535 21.7333 35.9469 21.8533 34.1335 19.76Z" fill="#35A6B6"/>
</svg>
