<svg width="55" height="55" viewBox="0 0 55 55" fill="none" xmlns="http://www.w3.org/2000/svg">
<circle cx="27.5" cy="27.5" r="27.5" fill="#19323C"/>
<path d="M41.9461 19.9997C40.9194 20.4663 39.8127 20.773 38.6661 20.9197C39.8394 20.213 40.7461 19.093 41.1727 17.7463C40.0661 18.413 38.8394 18.8797 37.5461 19.1463C36.4927 17.9997 35.0127 17.333 33.3327 17.333C30.1994 17.333 27.6394 19.893 27.6394 23.053C27.6394 23.5063 27.6927 23.9463 27.7861 24.3597C23.0394 24.1197 18.8127 21.8397 15.9994 18.3863C15.5061 19.2263 15.2261 20.213 15.2261 21.253C15.2261 23.2397 16.2261 24.9997 17.7727 25.9997C16.8261 25.9997 15.9461 25.733 15.1727 25.333V25.373C15.1727 28.1463 17.1461 30.4663 19.7594 30.9863C18.9204 31.216 18.0395 31.2479 17.1861 31.0797C17.5482 32.2163 18.2575 33.2109 19.2141 33.9236C20.1707 34.6363 21.3267 35.0313 22.5194 35.053C20.4976 36.6536 17.9914 37.5188 15.4127 37.5063C14.9594 37.5063 14.5061 37.4797 14.0527 37.4263C16.5861 39.053 19.5994 39.9997 22.8261 39.9997C33.3327 39.9997 39.1061 31.2797 39.1061 23.7197C39.1061 23.4663 39.1061 23.2263 39.0927 22.973C40.2127 22.173 41.1727 21.1597 41.9461 19.9997Z" fill="#35A6B6"/>
</svg>
