<svg width="49" height="40" viewBox="0 0 49 40" fill="none" xmlns="http://www.w3.org/2000/svg"><path d="M32.3935 28.625L27.9768 27.8542C27.9352 27.8542 27.9143 27.8333 27.8935 27.7917L26.0602 24.3125H26.1227C27.1643 24.3125 28.0185 23.4583 28.0185 22.4167V19.7292C29.0185 19.3333 29.7685 18.4167 29.9143 17.3125L31.9352 2.14583C31.9977 1.60417 31.8518 1.0625 31.4768 0.645833C31.1227 0.229167 30.6018 0 30.0602 0H19.2685C18.7268 0 18.206 0.229167 17.8518 0.645833C17.4977 1.0625 17.331 1.60417 17.3935 2.14583L19.4143 17.3125C19.5602 18.4167 20.3102 19.3333 21.3102 19.7292V22.4167C21.3102 23.4583 22.1643 24.3125 23.206 24.3125H23.2685L21.4352 27.7917C21.4143 27.8125 21.3935 27.8333 21.3518 27.8542L16.9352 28.625C16.4768 28.7083 16.081 29.0417 15.9352 29.4792C15.7893 29.9375 15.9143 30.4167 16.2477 30.7708L19.3727 34C19.3935 34.0208 19.4143 34.0625 19.3935 34.0833L18.7477 38.5208C18.6852 39 18.8727 39.4583 19.2685 39.7292C19.4977 39.8958 19.7477 39.9792 20.0185 39.9792C20.206 39.9792 20.3935 39.9375 20.581 39.8542L24.6227 37.875C24.6435 37.8542 24.6852 37.8542 24.706 37.875L28.7477 39.8542C29.1643 40.0625 29.6852 40.0208 30.0602 39.75C30.4352 39.4792 30.6435 39 30.581 38.5417L29.9352 34.1042C29.9352 34.0625 29.9352 34.0417 29.956 34.0208L33.081 30.7917C33.4143 30.4583 33.5185 29.9583 33.3727 29.5C33.2477 29.0208 32.8518 28.7083 32.3935 28.625ZM27.1227 1.1875H30.0602C30.2685 1.1875 30.456 1.27083 30.6018 1.4375C30.7477 1.60417 30.8102 1.79167 30.7685 2L28.7477 17.1667C28.6852 17.6667 28.3935 18.125 27.9977 18.4167V15.6667C27.9977 15 27.6435 14.4167 27.1227 14.0833V1.1875ZM23.3727 1.1875H25.956V13.7708H23.3727V1.1875ZM22.206 14.0625C21.6852 14.4167 21.331 15 21.331 15.6667V18.4167C20.9352 18.125 20.6643 17.6875 20.6018 17.1667L18.5602 2C18.5393 1.79167 18.6018 1.58333 18.7268 1.4375C18.8518 1.29167 19.0602 1.1875 19.2685 1.1875H22.206V14.0625ZM23.2268 23.1458C22.831 23.1458 22.4977 22.8125 22.4977 22.4167V15.6667C22.4977 15.2708 22.831 14.9375 23.2268 14.9375H26.1018C26.4977 14.9375 26.831 15.2708 26.831 15.6667V22.4167C26.831 22.8125 26.4977 23.1458 26.1018 23.1458H23.2268ZM32.2477 29.9583L29.1227 33.1875C28.8518 33.4792 28.7268 33.875 28.7685 34.25L29.4143 38.6875C29.4143 38.7292 29.4143 38.7708 29.3727 38.7917C29.331 38.8125 29.3102 38.8125 29.2685 38.7917L25.2268 36.8125C24.8727 36.6458 24.456 36.6458 24.1018 36.8125L20.0602 38.7917C20.0185 38.8125 19.9768 38.8125 19.956 38.7917C19.9143 38.7708 19.9143 38.7292 19.9143 38.6875L20.5602 34.25C20.6227 33.8542 20.4768 33.4583 20.206 33.1875L17.081 29.9583C17.0602 29.9375 17.0393 29.8958 17.0602 29.8542C17.081 29.8125 17.1018 29.7917 17.1435 29.7917L21.5602 29.0208C21.956 28.9583 22.2893 28.7083 22.4768 28.3542L24.581 24.375C24.6018 24.3333 24.6227 24.3125 24.6643 24.3125C24.706 24.3125 24.7477 24.3333 24.7477 24.375L26.8518 28.3333C27.0393 28.6875 27.3727 28.9375 27.7685 29L32.1852 29.7708C32.2268 29.7708 32.2477 29.8125 32.2685 29.8333C32.2893 29.8542 32.2685 29.9167 32.2477 29.9583Z" fill="#35A6B6"></path><path d="M14.9361 22.1876C14.9361 22.1459 14.9361 22.1251 14.9569 22.1042L18.0819 18.8751C18.4152 18.5417 18.5194 18.0417 18.3736 17.5834C18.2277 17.1251 17.8527 16.7917 17.3736 16.7292L12.9569 15.9584C12.9152 15.9584 12.8944 15.9376 12.8736 15.8959L11.0611 12.4167H11.1236C12.1652 12.4167 13.0194 11.5626 13.0194 10.5209V7.83339C14.0194 7.43755 14.7486 6.52089 14.8944 5.41672L15.5194 0.687554C15.5611 0.375054 15.3319 0.0625545 15.0194 0.0208878C14.7069 -0.0207788 14.4152 0.208388 14.3736 0.520888L13.7486 5.25005C13.6652 5.77089 13.3944 6.20839 12.9986 6.50005V3.77089C12.9986 3.10422 12.6444 2.52089 12.1236 2.18755V0.604221C12.1236 0.270888 11.8527 0.0208878 11.5402 0.0208878C11.2277 0.0208878 10.9569 0.270888 10.9569 0.604221V1.87505H8.37357V0.604221C8.37357 0.270888 8.10274 0.0208878 7.79024 0.0208878C7.47774 0.0208878 7.20691 0.270888 7.20691 0.604221V2.16672C6.68607 2.52089 6.33191 3.10422 6.33191 3.77089V6.52089C5.93607 6.22922 5.66524 5.79172 5.58191 5.27089L4.95691 0.541721C4.91524 0.208388 4.62357 -0.0207788 4.29024 0.0208878C3.97774 0.0625545 3.74857 0.354221 3.79024 0.687554L4.41524 5.41672C4.58191 6.52089 5.31107 7.43755 6.33191 7.83339V10.5209C6.33191 11.5626 7.18607 12.4167 8.22774 12.4167H8.29024L6.45691 15.8959C6.43607 15.9167 6.41524 15.9376 6.37357 15.9584L1.95691 16.7292C1.49857 16.8126 1.10274 17.1459 0.956907 17.5834C0.811073 18.0417 0.91524 18.5209 1.24857 18.8751L4.37357 22.0834C4.39441 22.1042 4.41524 22.1459 4.39441 22.1667L3.74857 26.6042C3.68607 27.0834 3.87357 27.5417 4.26941 27.8126C4.64441 28.0834 5.16524 28.1251 5.58191 27.9167L9.62357 25.9376C9.64441 25.9167 9.68607 25.9167 9.70691 25.9376L13.7486 27.9167C13.9361 28.0001 14.1236 28.0417 14.3111 28.0417C14.5819 28.0417 14.8319 27.9584 15.0611 27.7917C15.4361 27.5209 15.6444 27.0417 15.5819 26.5834L14.9361 22.1876ZM8.22774 11.2501C7.83191 11.2501 7.49857 10.9167 7.49857 10.5209V3.77089C7.49857 3.37505 7.83191 3.04172 8.22774 3.04172H11.1027C11.4986 3.04172 11.8319 3.37505 11.8319 3.77089V10.5209C11.8319 10.9167 11.4986 11.2501 11.1027 11.2501H9.66524H8.22774ZM14.3736 26.8959C14.3319 26.9167 14.3111 26.9167 14.2694 26.8959L10.2277 24.9167C9.87357 24.7501 9.45691 24.7501 9.10274 24.9167L5.06107 26.8959C5.01941 26.9167 4.97774 26.9167 4.95691 26.8959C4.91524 26.8751 4.91524 26.8334 4.91524 26.7917L5.56107 22.3542C5.62357 21.9584 5.47774 21.5626 5.20691 21.2917L2.08191 18.0626C2.06107 18.0417 2.04024 18.0001 2.06107 17.9584C2.08191 17.9167 2.10274 17.8959 2.14441 17.8959L6.56107 17.1251C6.95691 17.0626 7.29024 16.8126 7.47774 16.4584L9.58191 12.4792C9.58191 12.4376 9.62357 12.4167 9.66524 12.4167C9.70691 12.4167 9.74857 12.4376 9.74857 12.4792L11.8527 16.4584C12.0402 16.8126 12.3736 17.0417 12.7694 17.1251L17.1861 17.8959C17.2277 17.8959 17.2486 17.9376 17.2694 17.9584C17.2902 17.9792 17.2694 18.0417 17.2486 18.0626L14.1236 21.2917C13.8527 21.5834 13.7277 21.9792 13.7694 22.3542L14.4152 26.7917C14.4152 26.8334 14.3944 26.8751 14.3736 26.8959Z" fill="#35A6B6"></path><path d="M48.0819 18.8751C48.4152 18.5417 48.5194 18.0417 48.3736 17.5834C48.2277 17.1251 47.8527 16.7917 47.3736 16.7292L42.9569 15.9584C42.9152 15.9584 42.8944 15.9376 42.8736 15.8959L41.0402 12.4167H41.1027C42.1444 12.4167 42.9986 11.5626 42.9986 10.5209V7.83339C44.0194 7.43755 44.7486 6.52089 44.8944 5.41672L45.5194 0.687554C45.5611 0.375054 45.3319 0.0625545 45.0194 0.0208878C44.7069 -0.0207788 44.3944 0.208388 44.3527 0.520888L43.7277 5.25005C43.6652 5.75005 43.3944 6.20839 42.9986 6.50005V3.77089C42.9986 3.10422 42.6444 2.52089 42.1236 2.18755V0.604221C42.1236 0.270888 41.8527 0.0208878 41.5402 0.0208878C41.2277 0.0208878 40.9569 0.291721 40.9569 0.604221V1.87505H38.3736V0.604221C38.3736 0.270888 38.1027 0.0208878 37.7902 0.0208878C37.4777 0.0208878 37.2069 0.291721 37.2069 0.604221V2.16672C36.6861 2.50005 36.3319 3.08339 36.3319 3.75005V6.50005C35.9361 6.20839 35.6652 5.77089 35.5819 5.25005L34.9569 0.520888C34.9152 0.208388 34.6236 -0.0207788 34.2902 0.0208878C33.9777 0.0625545 33.7486 0.354221 33.7902 0.687554L34.4361 5.41672C34.5819 6.52089 35.3111 7.43755 36.3319 7.83339V10.5209C36.3319 11.5626 37.1861 12.4167 38.2277 12.4167H38.2902L36.4569 15.8959C36.4361 15.9167 36.4152 15.9376 36.3736 15.9584L31.9569 16.7292C31.4986 16.8126 31.1027 17.1459 30.9569 17.5834C30.8111 18.0417 30.9152 18.5209 31.2486 18.8751L34.3736 22.1042C34.3944 22.1251 34.4152 22.1667 34.3944 22.1876L33.7486 26.6251C33.6861 27.1042 33.8736 27.5626 34.2694 27.8334C34.6444 28.1042 35.1652 28.1459 35.5819 27.9376L39.6236 25.9584C39.6444 25.9376 39.6861 25.9376 39.7069 25.9584L43.7486 27.9376C43.9361 28.0209 44.1236 28.0626 44.3111 28.0626C44.5819 28.0626 44.8319 27.9792 45.0611 27.8126C45.4361 27.5417 45.6444 27.0626 45.5819 26.6042L44.9361 22.1667C44.9361 22.1251 44.9361 22.1042 44.9569 22.0834L48.0819 18.8751ZM38.2277 11.2501C37.8319 11.2501 37.4986 10.9167 37.4986 10.5209V3.77089C37.4986 3.37505 37.8319 3.04172 38.2277 3.04172H41.1027C41.4986 3.04172 41.8319 3.37505 41.8319 3.77089V10.5209C41.8319 10.9167 41.4986 11.2501 41.1027 11.2501H38.2277ZM43.7694 22.3542L44.4152 26.7917C44.4152 26.8334 44.4152 26.8751 44.3736 26.8959C44.3319 26.9167 44.3111 26.9167 44.2694 26.8959L40.2277 24.9167C40.0402 24.8334 39.8527 24.7917 39.6652 24.7917C39.4777 24.7917 39.2902 24.8334 39.1027 24.9167L35.0611 26.8959C35.0194 26.9167 34.9777 26.9167 34.9569 26.8959C34.9152 26.8751 34.9152 26.8334 34.9152 26.7917L35.5611 22.3542C35.6236 21.9584 35.4777 21.5626 35.2069 21.2917L32.0819 18.0626C32.0611 18.0417 32.0402 18.0001 32.0611 17.9584C32.0819 17.9167 32.1027 17.8959 32.1444 17.8959L36.5611 17.1251C36.9569 17.0626 37.2902 16.8126 37.4777 16.4584L39.5819 12.4792C39.6236 12.3959 39.7277 12.3959 39.7694 12.4792L41.8736 16.4584C42.0611 16.8126 42.3944 17.0417 42.7902 17.1251L47.2069 17.8959C47.2486 17.8959 47.2694 17.9376 47.2902 17.9584C47.3111 17.9792 47.2902 18.0417 47.2694 18.0626L44.1444 21.2917C43.8527 21.5626 43.7277 21.9584 43.7694 22.3542Z" fill="#35A6B6"></path></svg>