<svg width="55" height="55" viewBox="0 0 55 55" fill="none" xmlns="http://www.w3.org/2000/svg"><circle cx="27.5" cy="27.5" r="27.5" fill="#19323C"></circle><path d="M28.43 20.1C28.2676 20.0297 28.0895 20.0038 27.9138 20.0249C27.7381 20.046 27.5712 20.1133 27.43 20.22L22.65 24H19C18.7348 24 18.4804 24.1053 18.2929 24.2929C18.1054 24.4804 18 24.7348 18 25V31C18 31.2652 18.1054 31.5195 18.2929 31.7071C18.4804 31.8946 18.7348 32 19 32H22.65L27.38 35.78C27.5559 35.9211 27.7744 35.9987 28 36C28.1494 36.0024 28.297 35.9681 28.43 35.9C28.6002 35.8189 28.744 35.6914 28.8448 35.5322C28.9457 35.373 28.9995 35.1885 29 35V21C28.9995 20.8115 28.9457 20.627 28.8448 20.4677C28.744 20.3085 28.6002 20.181 28.43 20.1V20.1ZM27 32.92L23.62 30.22C23.4441 30.0788 23.2256 30.0013 23 30H20V26H23C23.2256 25.9987 23.4441 25.9211 23.62 25.78L27 23.08V32.92ZM35.66 22.34C35.4717 22.1517 35.2163 22.0459 34.95 22.0459C34.6837 22.0459 34.4283 22.1517 34.24 22.34C34.0517 22.5283 33.9459 22.7837 33.9459 23.05C33.9459 23.3163 34.0517 23.5717 34.24 23.76C34.8289 24.3479 35.289 25.0519 35.5911 25.8272C35.8933 26.6025 36.0309 27.4322 35.9951 28.2636C35.9594 29.0949 35.7511 29.9098 35.3835 30.6563C35.016 31.4028 34.4971 32.0647 33.86 32.6C33.7053 32.7323 33.5946 32.9087 33.5428 33.1055C33.491 33.3024 33.5005 33.5104 33.5701 33.7018C33.6396 33.8931 33.766 34.0586 33.9321 34.1762C34.0983 34.2939 34.2964 34.358 34.5 34.36C34.7337 34.3604 34.9601 34.2791 35.14 34.13C35.9909 33.4173 36.6843 32.5353 37.1759 31.5401C37.6675 30.5449 37.9466 29.4583 37.9955 28.3494C38.0444 27.2405 37.862 26.1336 37.4599 25.099C37.0579 24.0644 36.4449 23.1248 35.66 22.34V22.34ZM32.83 25.17C32.7368 25.0767 32.6261 25.0028 32.5042 24.9523C32.3824 24.9019 32.2519 24.8759 32.12 24.8759C31.9881 24.8759 31.8576 24.9019 31.7358 24.9523C31.6139 25.0028 31.5032 25.0767 31.41 25.17C31.3168 25.2632 31.2428 25.3739 31.1923 25.4957C31.1419 25.6175 31.1159 25.7481 31.1159 25.88C31.1159 26.0118 31.1419 26.1424 31.1923 26.2642C31.2428 26.386 31.3168 26.4967 31.41 26.59C31.7856 26.9633 31.9978 27.4704 32 28C32.0002 28.2913 31.9368 28.5792 31.8142 28.8435C31.6915 29.1078 31.5126 29.3421 31.29 29.53C31.1887 29.6139 31.105 29.717 31.0437 29.8334C30.9823 29.9497 30.9445 30.077 30.9325 30.208C30.9204 30.339 30.9343 30.471 30.9733 30.5967C31.0124 30.7223 31.0758 30.8389 31.16 30.94C31.2447 31.0405 31.3483 31.1234 31.465 31.1838C31.5817 31.2443 31.7092 31.2811 31.8401 31.2922C31.9711 31.3034 32.1029 31.2886 32.2282 31.2488C32.3534 31.2089 32.4696 31.1448 32.57 31.06C33.0171 30.6851 33.3768 30.2169 33.6238 29.6883C33.8709 29.1597 33.9992 28.5835 34 28C33.9944 26.9401 33.5744 25.9244 32.83 25.17V25.17Z" fill="white"></path></svg>