<svg width="55" height="55" viewBox="0 0 55 55" fill="none" xmlns="http://www.w3.org/2000/svg">
<circle cx="27.5" cy="27.5" r="27.5" fill="#19323C"/>
<path d="M25.3327 32.0003L32.2527 28.0003L25.3327 24.0003V32.0003ZM40.746 21.5603C40.9193 22.187 41.0393 23.027 41.1193 24.0937C41.2127 25.1603 41.2527 26.0803 41.2527 26.8803L41.3327 28.0003C41.3327 30.9203 41.1193 33.067 40.746 34.4403C40.4127 35.6403 39.6393 36.4137 38.4393 36.747C37.8127 36.9203 36.666 37.0403 34.906 37.1203C33.1727 37.2137 31.586 37.2537 30.1193 37.2537L27.9993 37.3337C22.4127 37.3337 18.9327 37.1203 17.5593 36.747C16.3593 36.4137 15.586 35.6403 15.2527 34.4403C15.0793 33.8137 14.9593 32.9737 14.8793 31.907C14.786 30.8403 14.746 29.9203 14.746 29.1203L14.666 28.0003C14.666 25.0803 14.8793 22.9337 15.2527 21.5603C15.586 20.3603 16.3593 19.587 17.5593 19.2537C18.186 19.0803 19.3327 18.9603 21.0927 18.8803C22.826 18.787 24.4127 18.747 25.8793 18.747L27.9993 18.667C33.586 18.667 37.066 18.8803 38.4393 19.2537C39.6393 19.587 40.4127 20.3603 40.746 21.5603Z" fill="#35A6B6"/>
</svg>
